<svg width="43" height="36" viewBox="0 0 43 36" fill="none" xmlns="http://www.w3.org/2000/svg">
<path d="M3.66082 1.80939C2.74185 5.31294 2.39451 9.24469 2.26855 12.8615C2.25605 13.2206 2.15278 14.4027 2.61232 14.6148C2.82134 14.7112 3.18299 14.6541 3.3858 14.5804C4.1307 14.3095 4.89946 14.2116 5.68905 14.1163C10.0711 13.5874 14.5867 13.4173 18.9929 13.1709C23.9584 12.8933 28.9819 13.1022 33.9554 13.1022C35.4285 13.1022 36.9768 13.2407 38.433 12.9819C38.7661 12.9226 39.794 13.1456 40.0143 12.8701C40.2575 12.5661 40.464 12.638 40.4784 12.1053C40.5142 10.7791 40.6331 9.46309 40.6331 8.12613V4.14702C40.6331 3.70836 40.8042 3.11885 40.3237 2.92664C39.9499 2.77712 39.3559 2.89226 38.9658 2.89226C37.911 2.89226 36.8638 2.89975 35.8117 2.81491C32.7897 2.5712 29.7063 2.73757 26.6761 2.73757C19.0829 2.73757 11.5604 1.5 3.97021 1.5M5.98125 15.8867C5.75751 19.2428 5.24488 22.5768 5.05308 25.9333C4.97276 27.3389 4.45124 29.5214 4.98432 30.8922L4.9989 30.9297C5.44402 32.0746 5.60448 32.4873 6.78911 32.7142C8.7795 33.0953 10.8528 32.8464 12.8652 32.9806C17.2071 33.27 21.5788 33.3861 25.9284 33.5994C28.4183 33.7214 30.9694 33.522 33.3968 33.522C34.518 33.522 35.5206 33.2126 36.611 33.2126C37.1492 33.2126 37.0751 33.0455 37.0751 32.5595V28.5718C37.0751 23.9269 36.1469 19.4395 36.1469 14.8038" stroke="white" stroke-width="3" stroke-linecap="round"/>
<path d="M14.2261 18.4667C18.7576 18.4667 23.5269 18.312 27.994 18.312" stroke="white" stroke-width="3" stroke-linecap="round"/>
</svg>
