<svg width="45" height="45" viewBox="0 0 45 45" fill="none" xmlns="http://www.w3.org/2000/svg">
<path d="M28.7635 19.805C26.8303 19.805 26.0543 17.9611 26.3631 16.1852C26.5337 15.204 28.8299 14.1704 29.5934 13.6891C31.2266 12.6595 32.2063 11.3911 32.613 9.52039C32.7163 9.04538 32.7904 8.14186 32.2746 7.86056C32.0774 7.753 31.9535 7.55956 31.7512 7.45837C31.6762 7.4209 31.2921 7.39453 31.432 7.39453C33.4917 7.39453 35.4245 8.00746 35.5432 10.3822C35.6481 12.4803 35.047 14.5794 34.1068 16.4598C33.5154 17.6426 32.4357 18.8853 31.1766 19.3453C30.6713 19.53 28.707 20.4964 28.3038 19.69" stroke="white" stroke-width="3" stroke-linecap="round"/>
<path d="M25.7759 19.2306C24.1839 18.7212 22.5065 19.4738 21.2306 20.3925C19.9125 21.3415 18.4973 22.2398 17.3299 23.3738C16.0618 24.6057 14.8665 25.8426 13.6975 27.1786C12.2725 28.8072 11.0354 30.5781 10.1544 32.5603C9.46616 34.1088 9.15019 35.7195 8.82651 37.3738C8.60247 38.5189 8.5086 39.7047 8.25195 40.8339C8.17132 41.1887 8.02564 42.4382 7.68378 42.6661C7.18862 42.9962 8.80741 42.2668 9.34361 42.0086C11.2604 41.0857 13.4403 40.7676 15.2935 39.6593C17.6566 38.246 19.9602 36.8542 22.0988 35.0884C23.8794 33.6181 25.4236 32.0348 26.925 30.2876C28.4501 28.513 30.3724 25.7809 30.3724 23.3163C30.3724 22.7959 30.5496 21.8954 30.3468 21.4139C30.1928 21.048 29.9203 20.7472 29.7978 20.3797" stroke="white" stroke-width="3" stroke-linecap="round"/>
<path d="M38.8758 8.31393C40.4403 5.62308 37.3631 3.40475 35.0263 2.62582C33.9491 2.26675 32.7 2.10872 31.5662 2.10872C29.5392 2.10872 27.4977 1.97933 25.4567 1.99381C21.6114 2.02108 17.7283 2.51186 13.9975 3.42381C11.7656 3.96939 9.64279 4.67332 7.61995 5.78588C6.00078 6.67642 4.54799 7.85298 3.02349 8.88849C2.59342 9.18062 2.12637 9.44088 1.75947 9.80778C1.23161 10.3356 1.74266 10.1525 2.39787 10.1525C4.50018 10.1525 6.67318 9.95057 8.73076 9.51412C10.3731 9.16573 12.1075 9.23322 13.7805 9.23322C15.5555 9.23322 17.3178 9.69576 19.0855 9.89715C22.5005 10.2862 25.896 10.2674 29.3382 10.2674" stroke="white" stroke-width="3" stroke-linecap="round"/>
<path d="M39.5651 18.541C39.5267 19.694 39.3018 20.5093 38.4671 21.2989C38.0242 21.7179 37.4783 21.9976 36.9349 22.2693C36.7747 22.3494 36.2446 22.4872 36.1433 22.5884C36.0777 22.6541 37.2269 22.8492 37.2733 22.8566C38.0402 22.9786 38.9739 23.059 39.6801 23.3928C40.3303 23.7002 40.7431 24.0221 40.7143 24.7718C40.7066 24.9715 40.2726 25.4072 40.4461 25.308C40.8076 25.1015 41.1152 24.6981 41.4037 24.4015C41.8023 23.9918 42.0825 23.4929 42.489 23.0864C42.6399 22.9355 43.0125 22.6888 43.0125 22.448C43.0125 21.9788 41.9383 21.07 41.6591 20.7243C41.3544 20.3471 40.7143 19.5121 40.7143 19.0007" stroke="white" stroke-width="3" stroke-linecap="round"/>
<path d="M4.51739 29.5728C4.3125 30.4435 4.15749 31.2589 3.85346 32.1008C3.75377 32.3769 3.5981 33.237 3.5981 32.9435C3.5981 32.4812 3.71858 31.831 3.50872 31.4113C3.42087 31.2356 3.31868 31.1722 3.13845 31.0921C2.77805 30.932 3.77567 31.0666 3.94283 31.0666C4.79331 31.0666 7.32136 30.7219 6.47088 30.7219" stroke="white" stroke-width="3" stroke-linecap="round"/>
<path d="M17.9526 26.4205C19.9347 25.1799 21.9579 23.9538 23.8266 22.5522" stroke="white" stroke-width="3" stroke-linecap="round"/>
</svg>
