<svg width="44" height="40" viewBox="0 0 44 40" fill="none" xmlns="http://www.w3.org/2000/svg">
<path d="M14.8081 29.3094C13.1299 28.6584 10.7892 27.9904 8.93657 28.2383C8.12986 28.3463 7.42511 28.8617 6.83501 29.3094C5.9165 30.0062 4.37566 30.9623 4.27623 32.1262C4.11308 34.036 4.67498 35.8884 6.97939 36.4452C8.8235 36.8909 10.8824 36.6956 12.7787 36.6956C14.8316 36.6956 15.7723 35.4949 16.4284 33.9414C17.5566 31.2701 17.407 28.2956 17.407 25.4911C17.407 22.8004 17.6838 19.8513 18.4177 17.2355C18.7795 15.9458 19.1396 14.4871 19.1396 13.1598C19.1396 12.6413 19.3276 11.7144 18.9952 11.282M41.3744 8.65299C41.3744 12.7406 40.5701 16.764 39.9627 20.8104C39.3963 24.5835 39.5338 28.3379 38.5509 32.0566C38.0719 33.8691 36.735 35.612 34.813 36.4452C33.4867 37.0202 32.0885 37.4292 30.6179 37.6276C29.805 37.7372 28.4289 37.9791 28.0191 37.1894C27.3459 35.8923 27.5137 34.3211 27.5137 32.9329C27.5137 31.4063 29.3027 30.4368 30.6774 29.6919L30.6901 29.685C32.0599 28.9426 34.3013 29.1803 35.6633 29.8101C36.5134 30.2033 37.0708 31.0525 37.6205 31.688M18.4177 10.2805C21.8426 9.96064 25.2934 9.70207 28.7009 9.25112C30.1935 9.05358 31.6358 8.66763 33.1286 8.45825C34.7688 8.22818 36.5027 8.1073 38.1178 7.77665C39.2293 7.5491 40.5231 7.27589 41.6632 7.27589M19.284 8.77818C19.3011 8.30249 19.5421 7.86588 19.5727 7.40108C19.6107 6.82478 19.8771 5.96243 20.0781 5.40499C20.196 5.07783 20.394 4.60325 20.439 4.27132C20.4798 3.97104 24.4725 4.02094 24.9229 4.02094C27.9249 4.02094 30.6841 3.67436 33.5778 3.11679C35.0402 2.835 36.5808 2.79144 38.0215 2.42129C38.819 2.21643 39.7735 2.45922 40.5723 2.26132C40.9004 2.18003 42.0318 2.05654 42.2407 1.83011C42.6268 1.41168 42.4714 2.76533 42.4573 2.83164C42.3087 3.5275 41.9882 4.30244 41.9519 4.99465C41.8855 6.26217 41.23 7.38478 41.23 8.65299" stroke="white" stroke-width="3" stroke-linecap="round"/>
<path d="M2 2.5C3.88799 2.8882 5.61886 2.83214 7.50661 2.93592C8.0162 2.96393 6.71466 4.96863 6.62555 5.32136C6.0751 7.50012 2.96007 12.962 7.28634 12.962C7.91804 12.962 9.10188 13.2146 9.28096 12.4171C9.4797 11.5322 9.52432 10.6852 9.48898 9.74108C9.43358 8.26092 7.21995 7.86242 6.62555 9.03877" stroke="white" stroke-width="3" stroke-linecap="round"/>
</svg>
