<svg width="512" height="512" viewBox="0 0 512 512" fill="none" xmlns="http://www.w3.org/2000/svg">
<rect width="512" height="512" rx="256" fill="black"/>
<path fill-rule="evenodd" clip-rule="evenodd" d="M356.799 109.044C348.132 104.04 335.935 113.371 311.541 132.033L302.58 138.889L302.579 138.889C295.495 144.309 291.952 147.019 287.757 147.46C283.561 147.901 279.533 145.987 271.476 142.158L261.285 137.315C233.543 124.133 219.673 117.542 212.236 124.238C204.8 130.934 209.905 145.417 220.115 174.385L223.866 185.026L223.866 185.026C226.831 193.439 228.314 197.645 227.437 201.772C226.56 205.898 223.494 209.138 217.363 215.618L209.609 223.813C188.499 246.123 177.944 257.278 182.014 266.42C186.085 275.562 201.437 275.182 232.142 274.423L242.05 274.178L164.114 409.167C162.345 412.232 161.46 413.765 161.025 415.203C159.595 419.932 160.97 425.063 164.573 428.444C165.668 429.472 167.201 430.357 170.267 432.126C173.332 433.896 174.865 434.781 176.303 435.216C181.032 436.646 186.163 435.271 189.544 431.668C190.572 430.573 191.456 429.04 193.226 425.974L271.162 290.986L275.904 299.689C290.599 326.66 297.947 340.145 307.899 339.099C317.851 338.053 322.234 323.335 331 293.899L334.22 283.085L334.22 283.085C336.766 274.536 338.039 270.261 341.174 267.438C344.31 264.615 348.694 263.796 357.462 262.158L368.553 260.086C398.745 254.444 413.841 251.624 415.921 241.835C418.002 232.047 405.358 223.33 380.071 205.897L370.782 199.493C363.438 194.429 359.766 191.898 358.05 188.044C356.334 184.19 356.91 179.767 358.062 170.921L359.518 159.733C363.482 129.276 365.465 114.047 356.799 109.044Z" fill="#4951FF"/>
<path fill-rule="evenodd" clip-rule="evenodd" d="M341.799 79.0437C333.132 74.0402 320.935 83.3712 296.541 102.033L287.58 108.889L287.579 108.889C280.495 114.309 276.952 117.019 272.757 117.46C268.561 117.901 264.533 115.986 256.476 112.158L246.285 107.315C218.543 94.133 204.673 87.5419 197.236 94.2378C189.8 100.934 194.905 115.417 205.115 144.385L208.866 155.026L208.866 155.026C211.831 163.439 213.314 167.645 212.437 171.772C211.56 175.898 208.494 179.138 202.363 185.618L194.609 193.813C173.499 216.123 162.944 227.278 167.014 236.42C171.085 245.562 186.437 245.182 217.142 244.423L227.05 244.178L149.114 379.167C147.345 382.232 146.46 383.765 146.025 385.203C144.595 389.932 145.97 395.063 149.573 398.444C150.668 399.472 152.201 400.357 155.267 402.126C158.332 403.896 159.865 404.781 161.303 405.216C166.032 406.645 171.163 405.271 174.544 401.668C175.572 400.573 176.456 399.04 178.226 395.974L256.162 260.986L260.904 269.689C275.599 296.66 282.947 310.145 292.899 309.099C302.851 308.053 307.234 293.335 316 263.899L319.22 253.085L319.22 253.085C321.766 244.536 323.039 240.261 326.174 237.438C329.31 234.615 333.694 233.796 342.462 232.158L353.553 230.085C383.745 224.444 398.841 221.624 400.921 211.835C403.002 202.047 390.358 193.33 365.071 175.897L355.782 169.493C348.438 164.429 344.766 161.898 343.05 158.044C341.334 154.19 341.91 149.767 343.062 140.921L344.518 129.733C348.482 99.2757 350.465 84.0471 341.799 79.0437Z" fill="white"/>
<mask id="mask0_356_131" style="mask-type:alpha" maskUnits="userSpaceOnUse" x="229" y="25" width="158" height="178">
<path d="M377.664 25.3167C378.972 24.6156 380.561 25.5331 380.608 27.0164L385.495 182.203C386.711 186.789 386.478 190.84 384.589 194.112C375.771 209.384 334.234 201.909 291.812 177.416C249.39 152.924 222.148 120.689 230.965 105.417C232.854 102.146 236.244 99.9184 240.822 98.6782L377.664 25.3167Z" fill="#FFD88E"/>
</mask>
<g mask="url(#mask0_356_131)">
<rect x="288.634" y="-47.6848" width="273.18" height="232.38" transform="rotate(30 288.634 -47.6848)" fill="#FFDB65"/>
<path d="M220.638 151.687C243.548 120.875 291.687 106.678 342.122 120.434C392.557 134.19 417.977 107.9 424.51 98.3579" stroke="#C872FF" stroke-width="10"/>
<path d="M251.657 78.446C276.689 65.2458 294.739 60.5904 333.628 71.7033C387.248 87.026 413.522 60.5013 420.211 50.813" stroke="#FF6579" stroke-width="10"/>
<path d="M228.029 195.649C253.502 166.453 298.975 150.275 358.093 172.785C417.211 195.294 445.769 171.301 453.005 162.171" stroke="#73B0FF" stroke-width="10"/>
</g>
<path d="M454.352 211.339L477.916 219.168C465.212 228.224 462.706 236.915 461.254 254.78L437.69 246.951C439.07 228.282 442.379 220.169 454.352 211.339Z" fill="#FF266B"/>
<path d="M59.2223 202.518L80.05 189C79.1927 204.577 84.4169 211.961 97.465 224.25L76.6373 237.769C62.9154 225.034 58.6445 217.385 59.2223 202.518Z" fill="#FFD426"/>
<path d="M427.735 369.053L398.348 380.406L416.665 401.794L427.735 369.053Z" fill="#5EFF50"/>
<path d="M130.485 104.095L126.525 129.898L149.194 126.049L130.485 104.095Z" fill="#3FD5FF"/>
<path d="M349.485 337.095L345.525 362.898L368.194 359.049L349.485 337.095Z" fill="#3FD5FF"/>
<path d="M81.4852 342.095L77.5245 367.898L100.194 364.049L81.4852 342.095Z" fill="#FF7226"/>
<path d="M274 456.5L281 429L300 441V460.5L274 456.5Z" fill="#FFD426"/>
<path d="M383.808 468.893C395.516 460.33 408.319 452.472 419.261 442.897C419.962 442.284 419.72 444.07 419.694 444.302C419.293 447.862 418.384 451.362 417.37 454.787C414.482 464.54 411.255 474.131 407.453 483.566C406.267 486.508 405.21 489.066 405.21 492.24" stroke="white" stroke-width="4" stroke-linecap="round"/>
<path d="M435.367 453.814C438.563 451.853 452.417 442.569 454.823 449.653C455.77 452.442 457.317 458.197 461.417 457.597C462.736 457.404 463.811 455.66 464.767 454.895C466.228 453.726 468.16 452.889 469.875 452.139C471.526 451.416 471.677 452.898 471.82 454.328C472.265 458.773 467.297 465.286 464.713 468.406C456.36 478.493 447.509 487.646 440.231 498.563" stroke="white" stroke-width="4" stroke-linecap="round"/>
<path d="M438.772 477.648C449.459 476.81 460.277 479.502 470.982 479.594C473.702 479.617 476.423 479.594 479.143 479.594" stroke="white" stroke-width="4" stroke-linecap="round"/>
<path d="M490.966 451.14C487.836 446.502 486.679 442.679 487.075 437.143C487.263 434.51 491.069 435.01 492.803 435.089C496.336 435.25 497.04 442.27 493.884 441.899C492.862 441.778 493.868 440.29 494.182 439.953C495.242 438.811 497.285 438.395 498.64 437.629C500.185 436.756 504.664 435.183 504.585 438.007C504.49 441.45 500.355 444.331 497.884 446.276C496.417 447.431 494.584 448.838 492.695 449.141C491.605 449.315 490.916 449.066 489.993 449.681" stroke="white" stroke-width="4" stroke-linecap="round"/>
<path d="M385.392 506C388.239 501.976 389.292 498.661 388.932 493.859C388.761 491.575 385.298 492.009 383.72 492.077C380.506 492.216 379.865 498.306 382.737 497.984C383.667 497.879 382.751 496.589 382.466 496.296C381.501 495.305 379.642 494.945 378.41 494.28C377.005 493.523 372.93 492.159 373.001 494.609C373.088 497.595 376.85 500.094 379.098 501.781C380.432 502.782 382.1 504.003 383.818 504.266C384.81 504.417 385.437 504.201 386.277 504.734" stroke="white" stroke-width="4" stroke-linecap="round"/>
</svg>
