<svg width="100" height="100" viewBox="0 0 100 100" fill="none" xmlns="http://www.w3.org/2000/svg">
<g clip-path="url(#clip0_275_41)">
<path d="M29.0512 66.4236C24.0669 68.4255 19.0172 70.377 14.2958 72.8688C12.2959 73.9243 10.355 75.4224 8.64505 76.8474C8.01575 77.3718 6.95601 78.0143 6.64613 78.7502C6.35044 79.4525 6.10598 80.548 6.08874 81.3065C6.04993 83.0143 5.88411 84.281 7.51105 85.189C10.0246 86.5919 12.6743 86.7075 15.5067 86.7075C17.2011 86.7075 19.0211 86.9172 20.6962 86.669C22.1338 86.456 23.5211 86.0457 24.9439 85.8041C26.2702 85.5789 27.6448 84.9152 28.986 84.6999C29.6823 88.7188 30.852 93.2352 31.2674 97.2115C31.4981 99.4191 31.7111 101.615 31.8248 103.833C31.8768 104.846 31.7441 106.269 32.3822 107.12L89 105C88.8679 103.877 87.8571 100.662 87.6793 99.5468C87.4966 98.401 87.2662 97.3066 87.0065 96.1736C86.0889 92.1695 85.483 88.1506 84.8923 84.0936C84.0619 78.39 82.4083 72.3351 80.8176 66.8144C81.2718 66.6629 81.4607 66.1712 81.8939 65.9879C82.4604 65.7482 83.1522 65.2086 83.6622 64.8347C85.4618 63.5149 86.996 62.1886 88.3904 60.414C89.5414 58.9491 90.7692 57.6161 91.7251 56.0029C92.8667 54.0765 93.9356 51.9776 94.9061 49.9485C95.4672 48.7752 95.8333 47.447 96.2899 46.2293C96.6826 45.1824 97.1334 44.112 97.3855 43.0195C97.5883 42.1407 97.6836 40.2808 96.9915 39.5887C96.2575 38.8547 93.3724 40.0299 92.542 40.3479C88.1945 42.0129 82.4437 44.6407 78.2219 46.821C78.1218 47.237 78.018 47.6477 77.8768 48.0361C77.5539 48.924 77.1005 49.8467 76.7044 50.7269C75.6715 53.0221 74.035 54.8033 72.4182 56.7141C71.4302 57.8818 70.3659 58.7568 69.2949 59.8278C67.8259 61.2968 65.476 62.1185 63.6826 63.1048C61.5629 64.2707 59.0151 65.124 56.696 65.8437C55.3141 66.2726 53.7187 66.6086 52.2753 66.6414C50.5824 66.6799 48.9251 67.1433 47.2203 67.1603C41.1583 67.221 35.0834 67.01 29.0512 66.4236Z" fill="white"/>
<path d="M8 33C7.72628 33.5044 7.31738 34.0188 7.12664 34.5434C6.81493 35.4006 6.37413 36.3392 6.00225 37.1573C5.05713 39.2366 4.51638 41.7528 3.9745 43.9806C3.5898 45.5621 3.66697 47.3675 3.66697 48.9971C3.66697 50.7543 3.73535 52.3748 4.01294 54.1097C4.28352 55.8008 4.9893 57.6001 5.74277 59.107C6.2288 60.0791 7.89363 61.5088 8.89491 61.9324C10.1828 62.4773 11.3374 63.226 12.7582 63.6238C15.7057 64.4491 18.6354 65.0461 21.6669 65.5074C24.1186 65.8805 26.5813 66.1835 29.0512 66.4236C35.0834 67.01 41.1583 67.221 47.2203 67.1603C48.9251 67.1433 50.5824 66.6799 52.2753 66.6414C53.7187 66.6086 55.3141 66.2726 56.696 65.8437C59.0151 65.124 61.5629 64.2707 63.6826 63.1048C65.476 62.1185 67.8259 61.2968 69.2949 59.8278C70.3659 58.7568 71.4302 57.8818 72.4182 56.7141C74.035 54.8033 75.6715 53.0221 76.7044 50.7269C77.1005 49.8467 77.5539 48.924 77.8768 48.0361C78.018 47.6477 78.1218 47.237 78.2219 46.821C78.4278 45.9652 78.6183 45.0872 79.0877 44.3361C79.7527 43.2722 79.6067 41.9352 79.6067 40.7323C79.6067 39.4776 79.7621 38.0803 79.9911 36.8498C80.2254 35.5905 80.4716 34.1922 80.4716 32.9096C80.4716 31.9541 80.1256 31.0403 80.1256 30.1419C80.1256 28.9923 79.5077 27.6512 79.2223 26.5092C78.8998 25.2194 78.5241 24.0012 78.0883 22.7421C77.4812 20.9885 76.0546 20.0466 74.6766 18.9749C72.9472 17.6297 70.9214 16.8116 68.8817 15.9957C68.14 15.699 67.273 15.6113 66.4599 15.6113C66.3503 15.6113 66.1493 15.6164 65.9139 15.63C65.8164 14.9645 65.4784 14.0487 65.2875 13.4971C64.9109 12.4092 64.2578 11.4246 63.8652 10.3449C63.6557 9.76886 63.306 9.29108 63.1348 8.69196C63.0503 8.39616 62.7843 8.23632 62.6927 7.96159C62.59 7.65331 62.6653 7.38886 62.4813 7.09667C61.808 6.02726 61.4852 4.92774 60.665 3.92531C60.0499 3.17348 59.3027 2.58469 58.2432 2.82014C57.387 3.01041 55.9794 3.64893 55.3506 4.23283C54.0396 5.45017 52.5197 6.29269 51.3239 7.64445C49.3357 9.892 47.4399 13.8441 46.5736 16.8222H44.837C44.1311 16.8222 43.2737 16.6975 42.5978 16.9087C41.8716 17.1356 41.0772 16.8541 40.3491 17.0817C39.4751 17.3548 38.3104 17.479 37.3987 17.5141C36.0106 17.5675 34.582 18.0694 33.2567 18.4559C31.8015 18.8803 30.3256 19.1416 28.8841 19.6284C26.8998 20.2984 25.3635 21.6051 23.6611 22.7077C23.2691 22.2464 22.8939 21.429 22.7336 21.0122C22.4898 20.3785 21.6486 19.7152 21.1767 19.2055C20.5195 18.4957 19.8201 17.7518 19.197 16.9952C18.6963 16.3872 17.9991 16.005 17.5153 15.3518C17.0753 14.7579 16.5961 14.2057 16.0353 13.7181C14.8202 12.6615 13.9563 11.6327 12.2296 11.6327C11.5372 11.6327 10.1133 11.9814 9.64451 12.5841C8.17295 14.4761 7.92314 17.2767 7.5591 19.5419C6.9342 23.4301 7.86309 29.0467 8 33Z" fill="white"/>
<path d="M29.0512 66.4236C24.0669 68.4255 19.0172 70.377 14.2958 72.8688C12.2959 73.9243 10.355 75.4224 8.64505 76.8474C8.01575 77.3718 6.95601 78.0143 6.64613 78.7502C6.35044 79.4525 6.10598 80.548 6.08874 81.3065C6.04993 83.0143 5.88411 84.281 7.51105 85.189C10.0246 86.5919 12.6743 86.7075 15.5067 86.7075C17.2011 86.7075 19.0211 86.9172 20.6962 86.669C22.1338 86.456 23.5211 86.0457 24.9439 85.8041C26.2702 85.5789 27.6448 84.9152 28.986 84.6999M29.0512 66.4236C35.0834 67.01 41.1583 67.221 47.2203 67.1603M29.0512 66.4236C26.5813 66.1835 24.1186 65.8805 21.6669 65.5074M29.7875 84.6317C29.5221 84.6317 29.2547 84.6568 28.986 84.6999M78.2219 46.821C82.4437 44.6407 88.1945 42.0129 92.542 40.3479C93.3724 40.0299 96.2575 38.8547 96.9915 39.5887C97.6836 40.2808 97.5883 42.1407 97.3855 43.0195C97.1334 44.112 96.6826 45.1824 96.2899 46.2293C95.8333 47.447 95.4672 48.7752 94.9061 49.9485C93.9356 51.9776 92.8667 54.0765 91.7251 56.0029C90.7692 57.6161 89.5414 58.9491 88.3904 60.414C86.996 62.1886 85.4618 63.5149 83.6622 64.8347C83.1522 65.2086 82.4604 65.7482 81.8939 65.9879C81.4607 66.1712 81.2718 66.6629 80.8176 66.8144C82.4083 72.3351 84.0619 78.39 84.8923 84.0936C85.483 88.1506 86.0889 92.1695 87.0065 96.1736C87.2662 97.3066 87.4966 98.401 87.6793 99.5468C87.8571 100.662 88.8679 103.877 89 105L32.3822 107.12C31.7441 106.269 31.8768 104.846 31.8248 103.833C31.7111 101.615 31.4981 99.4191 31.2674 97.2115C30.852 93.2352 29.6823 88.7188 28.986 84.6999M78.2219 46.821C78.1218 47.237 78.018 47.6477 77.8768 48.0361C77.5539 48.924 77.1005 49.8467 76.7044 50.7269C75.6715 53.0221 74.035 54.8033 72.4182 56.7141C71.4302 57.8818 70.3659 58.7568 69.2949 59.8278C67.8259 61.2968 65.476 62.1185 63.6826 63.1048C61.5629 64.2707 59.0151 65.124 56.696 65.8437C55.3141 66.2726 53.7187 66.6086 52.2753 66.6414C50.5824 66.6799 48.9251 67.1433 47.2203 67.1603M78.2219 46.821C78.4278 45.9652 78.6183 45.0872 79.0877 44.3361C79.7527 43.2722 79.6067 41.9352 79.6067 40.7323C79.6067 39.4776 79.7621 38.0803 79.9911 36.8498C80.2254 35.5905 80.4716 34.1922 80.4716 32.9096C80.4716 31.9541 80.1256 31.0403 80.1256 30.1419C80.1256 28.9923 79.5077 27.6512 79.2223 26.5092C78.8998 25.2194 78.5241 24.0012 78.0883 22.7421C77.4812 20.9885 76.0546 20.0466 74.6766 18.9749C72.9472 17.6297 70.9214 16.8116 68.8817 15.9957C68.14 15.699 67.273 15.6113 66.4599 15.6113C66.3503 15.6113 66.1493 15.6164 65.9139 15.63M10.4133 29.104C9.56242 30.3279 8.74533 31.6266 8 33M8 33C7.72628 33.5044 7.31738 34.0188 7.12664 34.5434C6.81493 35.4006 6.37413 36.3392 6.00225 37.1573C5.05713 39.2366 4.51638 41.7528 3.9745 43.9806C3.5898 45.5621 3.66697 47.3675 3.66697 48.9971C3.66697 50.7543 3.73535 52.3748 4.01294 54.1097C4.28352 55.8008 4.9893 57.6001 5.74277 59.107C6.2288 60.0791 7.89363 61.5088 8.89491 61.9324C10.1828 62.4773 11.3374 63.226 12.7582 63.6238C15.7057 64.4491 18.6354 65.0461 21.6669 65.5074M8 33C7.86309 29.0467 6.9342 23.4301 7.5591 19.5419C7.92314 17.2767 8.17295 14.4761 9.64451 12.5841C10.1133 11.9814 11.5372 11.6327 12.2296 11.6327C13.9563 11.6327 14.8202 12.6615 16.0353 13.7181C16.5961 14.2057 17.0753 14.7579 17.5153 15.3518C17.9991 16.005 18.6963 16.3872 19.197 16.9952C19.8201 17.7518 20.5195 18.4957 21.1767 19.2055C21.6486 19.7152 22.4898 20.3785 22.7336 21.0122C22.8939 21.429 23.2691 22.2464 23.6611 22.7077M21.6669 65.5074C30.1066 66.7917 38.6762 67.2458 47.2203 67.1603M65.9139 15.63C65.3121 15.6648 64.4852 15.7551 64.3841 15.9573M65.9139 15.63C65.8164 14.9645 65.4784 14.0487 65.2875 13.4971C64.9109 12.4092 64.2578 11.4246 63.8652 10.3449C63.6557 9.76886 63.306 9.29108 63.1348 8.69196C63.0503 8.39616 62.7843 8.23632 62.6927 7.96159C62.59 7.65331 62.6653 7.38886 62.4813 7.09667C61.808 6.02726 61.4852 4.92774 60.665 3.92531C60.0499 3.17348 59.3027 2.58469 58.2432 2.82014C57.387 3.01041 55.9794 3.64893 55.3506 4.23283C54.0396 5.45017 52.5197 6.29269 51.3239 7.64445C49.3357 9.892 47.4399 13.8441 46.5736 16.8222M24 23C23.8888 22.9444 23.7743 22.8409 23.6611 22.7077M22.1762 23.5685C22.6933 23.31 23.1837 23.0169 23.6611 22.7077M46.5736 16.8222H44.837C44.1311 16.8222 43.2737 16.6975 42.5978 16.9087C41.8716 17.1356 41.0772 16.8541 40.3491 17.0817C39.4751 17.3548 38.3104 17.479 37.3987 17.5141C36.0106 17.5675 34.582 18.0694 33.2567 18.4559C31.8015 18.8803 30.3256 19.1416 28.8841 19.6284C26.8998 20.2984 25.3635 21.6051 23.6611 22.7077M46.5736 16.8222H48.1237M28.8841 84.0936C28.9168 84.2943 28.9508 84.4965 28.986 84.6999" stroke="black" stroke-width="3" stroke-linecap="round" stroke-linejoin="round"/>
<path d="M25.2897 37.753C24.094 38.3979 23.2272 39.3788 22.3874 38.0413C22.1024 37.5874 21.8268 37.1058 22.0991 36.5613C22.3406 36.0783 23.3632 35.4416 23.9058 35.9271C25.0294 36.9323 25.5848 39.1369 23.5598 39.1369" stroke="black" stroke-width="3" stroke-linecap="round"/>
<path d="M36.671 38.9177C39.3682 38.1138 42.0928 37.3415 44.7503 36.4556C45.7044 36.1376 47.1911 35.6772 48.2099 35.6772C48.7406 35.6772 49.6125 35.2112 50.1127 35.6003C50.6417 36.0118 51.1226 36.9305 51.487 37.5032C51.9355 38.208 52.0096 39.2336 52.1885 40.021C52.457 41.2024 52.621 42.6058 52.621 43.817C52.621 46.8888 52.5936 50.009 51.6696 52.9659C51.1553 54.6118 50.4908 55.2855 48.7769 55.2243C47.5684 55.1812 46.1208 53.383 45.2596 52.668C44.0271 51.6448 42.7182 50.4594 41.723 49.2084C40.8233 48.0773 40.159 46.8901 39.3397 45.7103C39.064 45.3132 38.8609 44.7756 38.6862 44.3264C38.5041 43.8581 38.0939 43.5693 37.879 43.1155C37.4522 42.2146 37.0724 40.0633 36.671 38.9177Z" fill="#FFB0D2"/>
<path d="M34.8037 39.4829C35.4239 39.2916 36.0467 39.1038 36.671 38.9177M36.671 38.9177C39.3682 38.1138 42.0928 37.3415 44.7503 36.4556C45.7044 36.1376 47.1911 35.6772 48.2099 35.6772C48.7406 35.6772 49.6125 35.2112 50.1127 35.6003C50.6417 36.0118 51.1226 36.9305 51.487 37.5032C51.9355 38.208 52.0096 39.2336 52.1885 40.021C52.457 41.2024 52.621 42.6058 52.621 43.817C52.621 46.8888 52.5936 50.009 51.6696 52.9659C51.1553 54.6118 50.4908 55.2855 48.7769 55.2243C47.5684 55.1812 46.1208 53.383 45.2596 52.668C44.0271 51.6448 42.7182 50.4594 41.723 49.2084C40.8233 48.0773 40.159 46.8901 39.3397 45.7103C39.064 45.3132 38.8609 44.7756 38.6862 44.3264C38.5041 43.8581 38.0939 43.5693 37.879 43.1155C37.4522 42.2146 37.0724 40.0633 36.671 38.9177Z" stroke="black" stroke-width="3" stroke-linecap="round"/>
<path d="M56.4269 29.6229C55.4419 30.0072 55.2565 30.1234 54.697 29.3153C54.3887 28.8699 54.3511 28.6952 54.3511 28.1525C54.3511 27.4129 55.8839 27.141 56.4269 27.4125C56.943 27.6706 57.5849 29.1274 56.8593 29.4499C55.6868 29.971 55.562 28.639 55.562 27.72" stroke="black" stroke-width="3" stroke-linecap="round"/>
<path d="M19.5369 46.9619C19.3054 48.0174 19.0561 49.0587 18.7188 50.0708" stroke="#FFB1D3" stroke-width="3" stroke-linecap="round"/>
<path d="M23.3002 46.9619C23.0221 47.8368 22.8447 49.2173 22.1548 49.9072" stroke="#FFB1D3" stroke-width="3" stroke-linecap="round"/>
<path d="M64.8615 35.5078C64.6797 36.8486 64.6349 38.315 64.207 39.5985" stroke="#FFB1D3" stroke-width="3" stroke-linecap="round"/>
<path d="M68.6247 36.1626C68.3726 37.1081 67.9702 38.2673 67.9702 39.2715" stroke="#FFB1D3" stroke-width="3" stroke-linecap="round"/>
</g>
<defs>
<clipPath id="clip0_275_41">
<rect width="100" height="100" fill="white"/>
</clipPath>
</defs>
</svg>
