<svg width="180" height="180" viewBox="0 0 180 180" fill="none" xmlns="http://www.w3.org/2000/svg">
<g clip-path="url(#clip0_283_149)">
<mask id="mask0_283_149" style="mask-type:luminance" maskUnits="userSpaceOnUse" x="0" y="0" width="180" height="180">
<path d="M180 0H0V180H180V0Z" fill="white"/>
</mask>
<g mask="url(#mask0_283_149)">
<path d="M180 0H0V180H180V0Z" fill="black"/>
<path d="M90 0H0V90H90V0Z" fill="#141419"/>
<path d="M180 90H90V180H180V90Z" fill="#141419"/>
<path d="M39.2938 107.562C41.6449 100.326 42.8205 96.708 45.0001 96.708C47.1797 96.708 48.3553 100.326 50.7064 107.562L53.7561 116.948C54.406 118.948 54.7309 119.948 55.5195 120.521C56.3081 121.094 57.3596 121.094 59.4625 121.094H69.3315C76.94 121.094 80.7442 121.094 81.4178 123.167C82.0913 125.24 79.0136 127.476 72.8583 131.948L64.874 137.749C63.1727 138.985 62.3221 139.603 62.0208 140.53C61.7196 141.457 62.0446 142.457 62.6944 144.457L65.7441 153.843C68.0952 161.08 69.2708 164.698 67.5074 165.979C65.7441 167.26 62.6664 165.024 56.511 160.552L48.5268 154.751C46.8255 153.515 45.9749 152.897 45.0001 152.897C44.0253 152.897 43.1747 153.515 41.4734 154.751L33.4892 160.552C27.3338 165.024 24.2561 167.26 22.4927 165.979C20.7294 164.698 21.905 161.08 24.2561 153.843L27.3058 144.457C27.9556 142.457 28.2806 141.457 27.9794 140.53C27.6781 139.603 26.8275 138.985 25.1262 137.749L17.1419 131.948C10.9866 127.476 7.90887 125.24 8.58241 123.167C9.25595 121.094 13.0602 121.094 20.6687 121.094H30.5377C32.6406 121.094 33.6921 121.094 34.4807 120.521C35.2693 119.948 35.5942 118.948 36.2441 116.948L39.2938 107.562Z" fill="#141419"/>
<path d="M39.2938 17.5621C41.6449 10.326 42.8205 6.70801 45.0001 6.70801C47.1797 6.70801 48.3553 10.326 50.7064 17.5621L53.7561 26.9481C54.406 28.9481 54.7309 29.9481 55.5195 30.5211C56.3081 31.094 57.3596 31.094 59.4625 31.094H69.3315C76.94 31.094 80.7442 31.094 81.4178 33.167C82.0913 35.2399 79.0136 37.476 72.8583 41.9481L64.874 47.749C63.1727 48.9851 62.3221 49.6031 62.0208 50.5302C61.7196 51.4572 62.0446 52.4572 62.6944 54.4572L65.7441 63.8433C68.0952 71.0793 69.2708 74.6974 67.5074 75.9785C65.7441 77.2597 62.6664 75.0236 56.511 70.5515L48.5268 64.7506C46.8255 63.5145 45.9749 62.8965 45.0001 62.8965C44.0253 62.8965 43.1747 63.5145 41.4734 64.7506L33.4892 70.5515C27.3338 75.0236 24.2561 77.2597 22.4927 75.9785C20.7294 74.6974 21.905 71.0793 24.2561 63.8433L27.3058 54.4572C27.9556 52.4572 28.2806 51.4572 27.9794 50.5302C27.6781 49.6031 26.8275 48.9851 25.1262 47.749L17.1419 41.9481C10.9866 37.476 7.90887 35.2399 8.58241 33.167C9.25595 31.094 13.0602 31.094 20.6687 31.094H30.5377C32.6406 31.094 33.6921 31.094 34.4807 30.5211C35.2693 29.9481 35.5942 28.9481 36.2441 26.9481L39.2938 17.5621Z" fill="black"/>
<path d="M129.294 107.562C131.645 100.326 132.82 96.708 135 96.708C137.18 96.708 138.355 100.326 140.706 107.562L143.756 116.948C144.406 118.948 144.731 119.948 145.519 120.521C146.308 121.094 147.359 121.094 149.462 121.094H159.331C166.94 121.094 170.744 121.094 171.418 123.167C172.091 125.24 169.014 127.476 162.858 131.948L154.874 137.749C153.173 138.985 152.322 139.603 152.021 140.53C151.72 141.457 152.044 142.457 152.694 144.457L155.744 153.843C158.095 161.08 159.271 164.698 157.507 165.979C155.744 167.26 152.666 165.024 146.511 160.552L138.527 154.751C136.825 153.515 135.975 152.897 135 152.897C134.025 152.897 133.175 153.515 131.473 154.751L123.489 160.552C117.334 165.024 114.256 167.26 112.493 165.979C110.729 164.698 111.905 161.08 114.256 153.843L117.306 144.457C117.956 142.457 118.28 141.457 117.979 140.53C117.678 139.603 116.827 138.985 115.126 137.749L107.142 131.948C100.986 127.476 97.9089 125.24 98.5824 123.167C99.256 121.094 103.06 121.094 110.669 121.094H120.538C122.641 121.094 123.692 121.094 124.481 120.521C125.269 119.948 125.594 118.948 126.244 116.948L129.294 107.562Z" fill="black"/>
<path d="M129.294 17.5621C131.645 10.326 132.82 6.70801 135 6.70801C137.18 6.70801 138.355 10.326 140.706 17.5621L143.756 26.9481C144.406 28.9481 144.731 29.9481 145.519 30.5211C146.308 31.094 147.359 31.094 149.462 31.094H159.331C166.94 31.094 170.744 31.094 171.418 33.167C172.091 35.2399 169.014 37.476 162.858 41.9481L154.874 47.749C153.173 48.9851 152.322 49.6031 152.021 50.5302C151.72 51.4572 152.044 52.4572 152.694 54.4572L155.744 63.8433C158.095 71.0793 159.271 74.6974 157.507 75.9785C155.744 77.2597 152.666 75.0236 146.511 70.5515L138.527 64.7506C136.825 63.5145 135.975 62.8965 135 62.8965C134.025 62.8965 133.175 63.5145 131.473 64.7506L123.489 70.5515C117.334 75.0236 114.256 77.2597 112.493 75.9785C110.729 74.6974 111.905 71.0793 114.256 63.8433L117.306 54.4572C117.956 52.4572 118.28 51.4572 117.979 50.5302C117.678 49.6031 116.827 48.9851 115.126 47.749L107.142 41.9481C100.986 37.476 97.9089 35.2399 98.5824 33.167C99.256 31.094 103.06 31.094 110.669 31.094H120.538C122.641 31.094 123.692 31.094 124.481 30.5211C125.269 29.9481 125.594 28.9481 126.244 26.9481L129.294 17.5621Z" fill="#141419"/>
</g>
</g>
<defs>
<clipPath id="clip0_283_149">
<rect width="180" height="180" fill="white"/>
</clipPath>
</defs>
</svg>
