<svg width="40" height="960" viewBox="0 0 40 960" fill="none" xmlns="http://www.w3.org/2000/svg">
<g clip-path="url(#clip0_282_84)">
<path d="M0 18.8213C2.65389 16.4456 6.15779 15 10 15C11.7987 15 13.523 15.3179 15.1211 15.8984C14.397 14.0733 14 12.0829 14 10C14 6.21588 15.3146 2.73931 17.5107 0H0V18.8213ZM40 22.4902C37.2608 24.6862 33.7839 26 30 26C27.9171 26 25.9267 25.603 24.1016 24.8789C24.6821 26.477 25 28.2013 25 30C25 32.3127 24.4758 34.5028 23.541 36.459C25.4972 35.5242 27.6873 35 30 35C33.8422 35 37.3461 36.4456 40 38.8213V22.4902ZM0 60.2041C2.54111 57.6104 6.08209 56 10 56C12.7047 56 15.2293 56.7684 17.3701 58.0967C15.8698 55.7612 15 52.9821 15 50C15 47.6878 15.5236 45.4979 16.458 43.542C14.5021 44.4764 12.3122 45 10 45C6.15803 45 2.65383 43.5551 0 41.1797V60.2041ZM40 134.581C38.2622 138.368 34.4398 141 30 141C23.9249 141 19 136.075 19 130C19 123.925 23.9249 119 30 119C34.4401 119 38.2624 121.632 40 125.42V98.3057C37.6154 101.174 34.0213 103 30 103C22.8203 103 17 97.1797 17 90C17 82.8203 22.8203 77 30 77C34.0216 77 37.6154 78.8271 40 81.6953V61.1797C37.3462 63.5551 33.842 65 30 65C27.0179 65 24.2388 64.1302 21.9033 62.6299C23.2316 64.7707 24 67.2953 24 70C24 77.732 17.732 84 10 84C6.08234 84 2.54107 82.3903 0 79.7969V103.369C2.14954 100.134 5.82465 98 10 98C16.6274 98 22 103.373 22 110C22 116.627 16.6274 122 10 122C5.82494 122 2.1496 119.867 0 116.632V480H40V134.581ZM10 160C4.47715 160 0 155.523 0 150C0 144.477 4.47715 140 10 140C15.5228 140 20 144.477 20 150C20 155.523 15.5228 160 10 160ZM30 179C25.0294 179 21 174.971 21 170C21 165.029 25.0294 161 30 161C34.9706 161 39 165.029 39 170C39 174.971 34.9706 179 30 179ZM10 199C5.02944 199 1 194.971 1 190C1 185.029 5.02944 181 10 181C14.9706 181 19 185.029 19 190C19 194.971 14.9706 199 10 199ZM30 218C25.5817 218 22 214.418 22 210C22 205.582 25.5817 202 30 202C34.4183 202 38 205.582 38 210C38 214.418 34.4183 218 30 218ZM10 238C5.58172 238 2 234.418 2 230C2 225.582 5.58172 222 10 222C14.4183 222 18 225.582 18 230C18 234.418 14.4183 238 10 238ZM30 258C25.5817 258 22 254.418 22 250C22 245.582 25.5817 242 30 242C34.4183 242 38 245.582 38 250C38 254.418 34.4183 258 30 258ZM10 278C5.58172 278 2 274.418 2 270C2 265.582 5.58172 262 10 262C14.4183 262 18 265.582 18 270C18 274.418 14.4183 278 10 278ZM30 297C26.134 297 23 293.866 23 290C23 286.134 26.134 283 30 283C33.866 283 37 286.134 37 290C37 293.866 33.866 297 30 297ZM10 317C6.13401 317 3 313.866 3 310C3 306.134 6.13401 303 10 303C13.866 303 17 306.134 17 310C17 313.866 13.866 317 10 317ZM30 337C26.134 337 23 333.866 23 330C23 326.134 26.134 323 30 323C33.866 323 37 326.134 37 330C37 333.866 33.866 337 30 337ZM10 356C6.68629 356 4 353.314 4 350C4 346.686 6.68629 344 10 344C13.3137 344 16 346.686 16 350C16 353.314 13.3137 356 10 356ZM30 376C26.6863 376 24 373.314 24 370C24 366.686 26.6863 364 30 364C33.3137 364 36 366.686 36 370C36 373.314 33.3137 376 30 376ZM10 396C6.68629 396 4 393.314 4 390C4 386.686 6.68629 384 10 384C13.3137 384 16 386.686 16 390C16 393.314 13.3137 396 10 396ZM30 415C27.2386 415 25 412.761 25 410C25 407.239 27.2386 405 30 405C32.7614 405 35 407.239 35 410C35 412.761 32.7614 415 30 415ZM10 435C7.23858 435 5 432.761 5 430C5 427.239 7.23858 425 10 425C12.7614 425 15 427.239 15 430C15 432.761 12.7614 435 10 435ZM30 455C27.2386 455 25 452.761 25 450C25 447.239 27.2386 445 30 445C32.7614 445 35 447.239 35 450C35 452.761 32.7614 455 30 455ZM10 474C7.79086 474 6 472.209 6 470C6 467.791 7.79086 466 10 466C12.2091 466 14 467.791 14 470C14 472.209 12.2091 474 10 474Z" fill="url(#paint0_linear_282_84)"/>
<path d="M40 941.179C37.3461 943.554 33.8422 945 30 945C28.2013 945 26.477 944.682 24.8789 944.102C25.603 945.927 26 947.917 26 950C26 953.784 24.6854 957.261 22.4893 960H40V941.179ZM0 937.51C2.73923 935.314 6.2161 934 10 934C12.0829 934 14.0733 934.397 15.8984 935.121C15.3179 933.523 15 931.799 15 930C15 927.687 15.5242 925.497 16.459 923.541C14.5028 924.476 12.3127 925 10 925C6.15779 925 2.65389 923.554 0 921.179V937.51ZM40 899.796C37.4589 902.39 33.9179 904 30 904C27.2953 904 24.7707 903.232 22.6299 901.903C24.1302 904.239 25 907.018 25 910C25 912.312 24.4764 914.502 23.542 916.458C25.4979 915.524 27.6878 915 30 915C33.842 915 37.3462 916.445 40 918.82V899.796ZM0 825.419C1.73782 821.632 5.56024 819 10 819C16.0751 819 21 823.925 21 830C21 836.075 16.0751 841 10 841C5.55993 841 1.73765 838.368 0 834.58V861.694C2.3846 858.826 5.97871 857 10 857C17.1797 857 23 862.82 23 870C23 877.18 17.1797 883 10 883C5.97844 883 2.3846 881.173 0 878.305V898.82C2.65383 896.445 6.15803 895 10 895C12.9821 895 15.7612 895.87 18.0967 897.37C16.7684 895.229 16 892.705 16 890C16 882.268 22.268 876 30 876C33.9177 876 37.4589 877.61 40 880.203V856.631C37.8505 859.866 34.1754 862 30 862C23.3726 862 18 856.627 18 850C18 843.373 23.3726 838 30 838C34.1751 838 37.8504 840.133 40 843.368V480H0V825.419ZM30 800C35.5228 800 40 804.477 40 810C40 815.523 35.5228 820 30 820C24.4772 820 20 815.523 20 810C20 804.477 24.4772 800 30 800ZM10 781C14.9706 781 19 785.029 19 790C19 794.971 14.9706 799 10 799C5.02944 799 1 794.971 1 790C1 785.029 5.02944 781 10 781ZM30 761C34.9706 761 39 765.029 39 770C39 774.971 34.9706 779 30 779C25.0294 779 21 774.971 21 770C21 765.029 25.0294 761 30 761ZM10 742C14.4183 742 18 745.582 18 750C18 754.418 14.4183 758 10 758C5.58172 758 2 754.418 2 750C2 745.582 5.58172 742 10 742ZM30 722C34.4183 722 38 725.582 38 730C38 734.418 34.4183 738 30 738C25.5817 738 22 734.418 22 730C22 725.582 25.5817 722 30 722ZM10 702C14.4183 702 18 705.582 18 710C18 714.418 14.4183 718 10 718C5.58172 718 2 714.418 2 710C2 705.582 5.58172 702 10 702ZM30 682C34.4183 682 38 685.582 38 690C38 694.418 34.4183 698 30 698C25.5817 698 22 694.418 22 690C22 685.582 25.5817 682 30 682ZM10 663C13.866 663 17 666.134 17 670C17 673.866 13.866 677 10 677C6.13401 677 3 673.866 3 670C3 666.134 6.13401 663 10 663ZM30 643C33.866 643 37 646.134 37 650C37 653.866 33.866 657 30 657C26.134 657 23 653.866 23 650C23 646.134 26.134 643 30 643ZM10 623C13.866 623 17 626.134 17 630C17 633.866 13.866 637 10 637C6.13401 637 3 633.866 3 630C3 626.134 6.13401 623 10 623ZM30 604C33.3137 604 36 606.686 36 610C36 613.314 33.3137 616 30 616C26.6863 616 24 613.314 24 610C24 606.686 26.6863 604 30 604ZM10 584C13.3137 584 16 586.686 16 590C16 593.314 13.3137 596 10 596C6.68629 596 4 593.314 4 590C4 586.686 6.68629 584 10 584ZM30 564C33.3137 564 36 566.686 36 570C36 573.314 33.3137 576 30 576C26.6863 576 24 573.314 24 570C24 566.686 26.6863 564 30 564ZM10 545C12.7614 545 15 547.239 15 550C15 552.761 12.7614 555 10 555C7.23858 555 5 552.761 5 550C5 547.239 7.23858 545 10 545ZM30 525C32.7614 525 35 527.239 35 530C35 532.761 32.7614 535 30 535C27.2386 535 25 532.761 25 530C25 527.239 27.2386 525 30 525ZM10 505C12.7614 505 15 507.239 15 510C15 512.761 12.7614 515 10 515C7.23858 515 5 512.761 5 510C5 507.239 7.23858 505 10 505ZM30 486C32.2091 486 34 487.791 34 490C34 492.209 32.2091 494 30 494C27.7909 494 26 492.209 26 490C26 487.791 27.7909 486 30 486Z" fill="url(#paint1_linear_282_84)"/>
</g>
<defs>
<linearGradient id="paint0_linear_282_84" x1="20" y1="640" x2="20" y2="0" gradientUnits="userSpaceOnUse">
<stop stop-opacity="0"/>
<stop offset="1"/>
</linearGradient>
<linearGradient id="paint1_linear_282_84" x1="20" y1="320" x2="20" y2="960" gradientUnits="userSpaceOnUse">
<stop stop-opacity="0"/>
<stop offset="1"/>
</linearGradient>
<clipPath id="clip0_282_84">
<rect width="40" height="960" fill="white" transform="matrix(1 0 0 -1 0 960)"/>
</clipPath>
</defs>
</svg>
