<svg width="120" height="120" viewBox="0 0 120 120" fill="none" xmlns="http://www.w3.org/2000/svg">
<g clip-path="url(#clip0_309_163)">
<g opacity="0.5" filter="url(#filter0_f_309_163)">
<path d="M53.901 24.2531C59.3097 15.5604 62.0141 11.2141 65.3058 11.7535C68.5975 12.293 69.7731 17.2752 72.1243 27.2396L74.3999 36.8833C75.0827 39.7773 75.4242 41.2243 76.4132 42.224C77.4022 43.2236 78.8454 43.5805 81.7319 44.2944L91.3507 46.6731C101.289 49.1309 106.259 50.3598 106.763 53.6571C107.267 56.9544 102.892 59.612 94.1418 64.9273L85.6732 70.0716C83.1319 71.6153 81.8612 72.3872 81.2161 73.6367C80.571 74.8862 80.6775 76.3691 80.8906 79.3349L81.6007 89.218C82.3344 99.4297 82.7012 104.536 79.7211 106.034C76.741 107.532 72.8614 104.193 65.1023 97.5133L57.5929 91.0489C55.3395 89.109 54.2127 88.139 52.825 87.9116C51.4373 87.6842 50.0599 88.2438 47.3051 89.3629L38.1251 93.0923C28.6399 96.9457 23.8973 98.8724 21.5514 96.5011C19.2054 94.1299 21.1828 89.4082 25.1376 79.9648L28.9651 70.8253C30.1136 68.0827 30.6879 66.7114 30.4754 65.3213C30.2629 63.9312 29.305 62.7942 27.3894 60.52L21.0058 52.9418C14.4099 45.1116 11.112 41.1965 12.6422 38.2326C14.1725 35.2687 19.2741 35.6902 29.4774 36.5333L39.3523 37.3492C42.3157 37.594 43.7973 37.7164 45.0537 37.0848C46.31 36.4531 47.0955 35.1908 48.6663 32.6661L53.901 24.2531Z" fill="#FFDC12"/>
</g>
<path d="M53.901 24.2531C59.3097 15.5604 62.0141 11.2141 65.3058 11.7535C68.5975 12.293 69.7731 17.2752 72.1243 27.2396L74.3999 36.8833C75.0827 39.7773 75.4242 41.2243 76.4132 42.224C77.4022 43.2236 78.8454 43.5805 81.7319 44.2944L91.3507 46.6731C101.289 49.1309 106.259 50.3598 106.763 53.6571C107.267 56.9544 102.892 59.612 94.1418 64.9273L85.6732 70.0716C83.1319 71.6153 81.8612 72.3872 81.2161 73.6367C80.571 74.8862 80.6775 76.3691 80.8906 79.3349L81.6007 89.218C82.3344 99.4297 82.7012 104.536 79.7211 106.034C76.741 107.532 72.8614 104.193 65.1023 97.5133L57.5929 91.0489C55.3395 89.109 54.2127 88.139 52.825 87.9116C51.4373 87.6842 50.0599 88.2438 47.3051 89.3629L38.1251 93.0923C28.6399 96.9457 23.8973 98.8724 21.5514 96.5011C19.2054 94.1299 21.1828 89.4082 25.1376 79.9648L28.9651 70.8253C30.1136 68.0827 30.6879 66.7114 30.4754 65.3213C30.2629 63.9312 29.305 62.7942 27.3894 60.52L21.0058 52.9418C14.4099 45.1116 11.112 41.1965 12.6422 38.2326C14.1725 35.2687 19.2741 35.6902 29.4774 36.5333L39.3523 37.3492C42.3157 37.594 43.7973 37.7164 45.0537 37.0848C46.31 36.4531 47.0955 35.1908 48.6663 32.6661L53.901 24.2531Z" fill="#FFDC12"/>
</g>
<defs>
<filter id="filter0_f_309_163" x="4.27246" y="3.70898" width="110.529" height="110.679" filterUnits="userSpaceOnUse" color-interpolation-filters="sRGB">
<feFlood flood-opacity="0" result="BackgroundImageFix"/>
<feBlend mode="normal" in="SourceGraphic" in2="BackgroundImageFix" result="shape"/>
<feGaussianBlur stdDeviation="4" result="effect1_foregroundBlur_309_163"/>
</filter>
<clipPath id="clip0_309_163">
<rect width="120" height="120" fill="white"/>
</clipPath>
</defs>
</svg>
