<svg width="120" height="120" viewBox="0 0 120 120" fill="none" xmlns="http://www.w3.org/2000/svg">
<g opacity="0.5" filter="url(#filter0_f_309_167)">
<path d="M51.6035 8.92667C51.6035 8.92667 57.2036 35.895 66.861 45.7585C76.5184 55.6219 95.8406 54.1076 95.8406 54.1076C95.8406 54.1076 77.0505 58.859 71.0591 71.295C65.0677 83.7311 68.3962 111.073 68.3962 111.073C68.3962 111.073 62.7961 84.1046 53.1387 74.2411C43.4813 64.3777 24.159 65.892 24.159 65.892C24.159 65.892 42.9492 61.1406 48.9406 48.7046C54.9319 36.2685 51.6035 8.92667 51.6035 8.92667Z" fill="#FF2A86"/>
</g>
<path d="M51.6035 8.92667C51.6035 8.92667 57.2036 35.895 66.861 45.7585C76.5184 55.6219 95.8406 54.1076 95.8406 54.1076C95.8406 54.1076 77.0505 58.859 71.0591 71.295C65.0677 83.7311 68.3962 111.073 68.3962 111.073C68.3962 111.073 62.7961 84.1046 53.1387 74.2411C43.4813 64.3777 24.159 65.892 24.159 65.892C24.159 65.892 42.9492 61.1406 48.9406 48.7046C54.9319 36.2685 51.6035 8.92667 51.6035 8.92667Z" fill="#FF2A86"/>
<defs>
<filter id="filter0_f_309_167" x="16.1592" y="0.926758" width="87.6816" height="118.146" filterUnits="userSpaceOnUse" color-interpolation-filters="sRGB">
<feFlood flood-opacity="0" result="BackgroundImageFix"/>
<feBlend mode="normal" in="SourceGraphic" in2="BackgroundImageFix" result="shape"/>
<feGaussianBlur stdDeviation="4" result="effect1_foregroundBlur_309_167"/>
</filter>
</defs>
</svg>
