<svg width="180" height="180" viewBox="0 0 180 180" fill="none" xmlns="http://www.w3.org/2000/svg">
<g clip-path="url(#clip0_722_169)">
<rect width="180" height="180" fill="#151726"/>
<rect width="90" height="90" fill="#181A2B"/>
<rect x="90" y="90" width="90" height="90" fill="#181A2B"/>
<path d="M39.2937 107.562C41.6448 100.326 42.8204 96.7082 45 96.7082C47.1796 96.7082 48.3552 100.326 50.7063 107.562L53.756 116.948C54.4059 118.948 54.7308 119.948 55.5194 120.521C56.308 121.094 57.3595 121.094 59.4624 121.094H69.3314C76.9399 121.094 80.7441 121.094 81.4177 123.167C82.0912 125.24 79.0135 127.476 72.8582 131.948L64.8739 137.749C63.1726 138.985 62.322 139.603 62.0207 140.53C61.7195 141.457 62.0445 142.457 62.6943 144.457L65.744 153.843C68.0951 161.08 69.2707 164.698 67.5073 165.979C65.744 167.26 62.6663 165.024 56.5109 160.552L48.5267 154.751C46.8254 153.515 45.9748 152.897 45 152.897C44.0252 152.897 43.1746 153.515 41.4733 154.751L33.4891 160.552C27.3337 165.024 24.256 167.26 22.4926 165.979C20.7293 164.698 21.9049 161.08 24.256 153.843L27.3057 144.457C27.9555 142.457 28.2805 141.457 27.9793 140.53C27.678 139.603 26.8274 138.985 25.1261 137.749L17.1418 131.948C10.9865 127.476 7.9088 125.24 8.58234 123.167C9.25588 121.094 13.0601 121.094 20.6686 121.094H30.5376C32.6405 121.094 33.692 121.094 34.4806 120.521C35.2692 119.948 35.5941 118.948 36.244 116.948L39.2937 107.562Z" fill="#181A2B"/>
<path d="M39.2937 17.5623C41.6448 10.3262 42.8204 6.7082 45 6.7082C47.1796 6.7082 48.3552 10.3262 50.7063 17.5623L53.756 26.9483C54.4059 28.9483 54.7308 29.9483 55.5194 30.5213C56.308 31.0942 57.3595 31.0942 59.4624 31.0942H69.3314C76.9399 31.0942 80.7441 31.0942 81.4177 33.1672C82.0912 35.2401 79.0135 37.4762 72.8582 41.9483L64.8739 47.7492C63.1726 48.9853 62.322 49.6033 62.0207 50.5304C61.7195 51.4574 62.0445 52.4574 62.6943 54.4574L65.744 63.8435C68.0951 71.0795 69.2707 74.6976 67.5073 75.9787C65.744 77.2599 62.6663 75.0238 56.5109 70.5517L48.5267 64.7508C46.8254 63.5147 45.9748 62.8967 45 62.8967C44.0252 62.8967 43.1746 63.5147 41.4733 64.7508L33.4891 70.5517C27.3337 75.0238 24.256 77.2599 22.4926 75.9787C20.7293 74.6976 21.9049 71.0795 24.256 63.8435L27.3057 54.4574C27.9555 52.4574 28.2805 51.4574 27.9793 50.5304C27.678 49.6033 26.8274 48.9853 25.1261 47.7492L17.1418 41.9483C10.9865 37.4762 7.9088 35.2401 8.58234 33.1672C9.25588 31.0942 13.0601 31.0942 20.6686 31.0942H30.5376C32.6405 31.0942 33.692 31.0942 34.4806 30.5213C35.2692 29.9483 35.5941 28.9483 36.244 26.9483L39.2937 17.5623Z" fill="#151726"/>
<path d="M129.294 107.562C131.645 100.326 132.82 96.7082 135 96.7082C137.18 96.7082 138.355 100.326 140.706 107.562L143.756 116.948C144.406 118.948 144.731 119.948 145.519 120.521C146.308 121.094 147.359 121.094 149.462 121.094H159.331C166.94 121.094 170.744 121.094 171.418 123.167C172.091 125.24 169.014 127.476 162.858 131.948L154.874 137.749C153.173 138.985 152.322 139.603 152.021 140.53C151.72 141.457 152.044 142.457 152.694 144.457L155.744 153.843C158.095 161.08 159.271 164.698 157.507 165.979C155.744 167.26 152.666 165.024 146.511 160.552L138.527 154.751C136.825 153.515 135.975 152.897 135 152.897C134.025 152.897 133.175 153.515 131.473 154.751L123.489 160.552C117.334 165.024 114.256 167.26 112.493 165.979C110.729 164.698 111.905 161.08 114.256 153.843L117.306 144.457C117.956 142.457 118.28 141.457 117.979 140.53C117.678 139.603 116.827 138.985 115.126 137.749L107.142 131.948C100.986 127.476 97.9088 125.24 98.5823 123.167C99.2559 121.094 103.06 121.094 110.669 121.094H120.538C122.641 121.094 123.692 121.094 124.481 120.521C125.269 119.948 125.594 118.948 126.244 116.948L129.294 107.562Z" fill="#151726"/>
<path d="M129.294 17.5623C131.645 10.3262 132.82 6.7082 135 6.7082C137.18 6.7082 138.355 10.3262 140.706 17.5623L143.756 26.9483C144.406 28.9483 144.731 29.9483 145.519 30.5213C146.308 31.0942 147.359 31.0942 149.462 31.0942H159.331C166.94 31.0942 170.744 31.0942 171.418 33.1672C172.091 35.2401 169.014 37.4762 162.858 41.9483L154.874 47.7492C153.173 48.9853 152.322 49.6033 152.021 50.5304C151.72 51.4574 152.044 52.4574 152.694 54.4574L155.744 63.8435C158.095 71.0795 159.271 74.6976 157.507 75.9787C155.744 77.2599 152.666 75.0238 146.511 70.5517L138.527 64.7508C136.825 63.5147 135.975 62.8967 135 62.8967C134.025 62.8967 133.175 63.5147 131.473 64.7508L123.489 70.5517C117.334 75.0238 114.256 77.2599 112.493 75.9787C110.729 74.6976 111.905 71.0795 114.256 63.8435L117.306 54.4574C117.956 52.4574 118.28 51.4574 117.979 50.5304C117.678 49.6033 116.827 48.9853 115.126 47.7492L107.142 41.9483C100.986 37.4762 97.9088 35.2401 98.5823 33.1672C99.2559 31.0942 103.06 31.0942 110.669 31.0942H120.538C122.641 31.0942 123.692 31.0942 124.481 30.5213C125.269 29.9483 125.594 28.9483 126.244 26.9483L129.294 17.5623Z" fill="#181A2B"/>
</g>
<defs>
<clipPath id="clip0_722_169">
<rect width="180" height="180" fill="white"/>
</clipPath>
</defs>
</svg>
