<svg width="24" height="24" viewBox="0 0 24 24" fill="none" xmlns="http://www.w3.org/2000/svg">
<g clip-path="url(#clip0_678_13)">
<rect width="24" height="24" rx="12" fill="#5865F2"/>
<path d="M17.5535 7.00498C16.5023 6.52873 15.3925 6.19086 14.2526 6C14.0966 6.27595 13.9555 6.55987 13.8298 6.85056C12.6155 6.66949 11.3807 6.66949 10.1664 6.85056C10.0406 6.5599 9.89949 6.27598 9.74357 6C8.60289 6.19247 7.4924 6.53114 6.44013 7.00747C4.3511 10.066 3.78479 13.0486 4.06794 15.9888C5.29133 16.8833 6.66066 17.5635 8.11639 18C8.44417 17.5637 8.73422 17.1009 8.98346 16.6164C8.51007 16.4415 8.05317 16.2256 7.61804 15.9714C7.73256 15.8892 7.84456 15.8045 7.95279 15.7223C9.21891 16.3115 10.6008 16.617 12 16.617C13.3991 16.617 14.781 16.3115 16.0472 15.7223C16.1566 15.8107 16.2686 15.8954 16.3819 15.9714C15.9459 16.226 15.4882 16.4423 15.014 16.6177C15.2629 17.1019 15.553 17.5644 15.881 18C17.338 17.5653 18.7084 16.8853 19.932 15.99C20.2642 12.5803 19.3644 9.62516 17.5535 7.00498ZM9.34212 14.1806C8.55307 14.1806 7.90119 13.472 7.90119 12.6002C7.90119 11.7285 8.53042 11.0137 9.3396 11.0137C10.1488 11.0137 10.7956 11.7285 10.7818 12.6002C10.7679 13.472 10.1463 14.1806 9.34212 14.1806ZM14.6578 14.1806C13.8675 14.1806 13.2182 13.472 13.2182 12.6002C13.2182 11.7285 13.8474 11.0137 14.6578 11.0137C15.4683 11.0137 16.1101 11.7285 16.0962 12.6002C16.0824 13.472 15.462 14.1806 14.6578 14.1806Z" fill="white"/>
</g>
<defs>
<clipPath id="clip0_678_13">
<rect width="24" height="24" fill="white"/>
</clipPath>
</defs>
</svg>
