<svg width="24" height="24" viewBox="0 0 24 24" fill="none" xmlns="http://www.w3.org/2000/svg">
<g clip-path="url(#clip0_810_176)">
<path d="M11.5 24H12.5C17.94 24 20.65 24 22.33 22.32C24 20.64 24 17.92 24 12.5V11.48C24 6.08 24 3.36 22.33 1.68C20.65 0 17.93 0 12.5 0H11.5C6.06 0 3.35 0 1.67 1.68C0 3.36 0 6.08 0 11.5V12.52C0 17.92 0 20.64 1.68 22.32C3.36 24 6.08 24 11.5 24Z" fill="black"/>
<path d="M12 22.0548C17.538 22.0548 22.0274 17.5654 22.0274 12.0274C22.0274 6.48942 17.538 2 12 2C6.46207 2 1.97266 6.48942 1.97266 12.0274C1.97266 17.5654 6.46207 22.0548 12 22.0548Z" fill="white"/>
<path d="M9.51761 21.1022C9.51761 21.3661 9.33013 21.6674 8.82876 21.5792C7.89789 22.9668 15.6463 22.9668 15.1957 21.5801C14.6952 21.6806 14.5069 21.3661 14.5069 21.1022C14.5069 20.7632 14.5191 19.6834 14.5191 18.3396C14.5191 17.3979 14.206 16.795 13.8425 16.4804C16.0738 16.2288 18.4175 15.3752 18.4175 11.5198C18.4175 10.4146 18.0287 9.52344 17.3895 8.82013C17.4898 8.56852 17.8412 7.53846 17.2893 6.15719C17.2893 6.15719 16.4504 5.88111 14.5322 7.18725C13.73 6.96184 12.8772 6.84827 12.0253 6.84827C11.1726 6.84827 10.3207 6.96096 9.51847 7.18725C7.60019 5.89334 6.7605 6.15719 6.7605 6.15719C6.20943 7.53846 6.55995 8.56852 6.66023 8.82013C6.02109 9.52344 5.63308 10.4277 5.63308 11.5198C5.63308 15.363 7.96379 16.2298 10.1951 16.4804C9.90649 16.7321 9.64317 17.1715 9.55597 17.8242C8.97961 18.088 7.53828 18.5161 6.63582 16.9959C6.44747 16.6945 5.88332 15.9536 5.09334 15.9659C4.25365 15.9782 4.75502 16.4429 5.10555 16.6316C5.5328 16.8701 6.02109 17.7621 6.13445 18.0514C6.33499 18.6157 6.98634 19.6956 9.50539 19.2308C9.50539 20.073 9.51761 20.8637 9.51761 21.1022Z" fill="black"/>
</g>
<defs>
<clipPath id="clip0_810_176">
<rect width="24" height="24" fill="white"/>
</clipPath>
</defs>
</svg>
