<svg width="171" height="171" viewBox="0 0 171 171" fill="none" xmlns="http://www.w3.org/2000/svg">
<path d="M169.381 65.179L168.714 61.863L140.515 56.937L156.901 34.768L154.996 32.684L130.894 44.242L133.942 13.547L131.465 12.127L116.794 36.947L100.314 0H97.456L101.362 35.716L59.922 2.558L56.397 3.6L88.31 43.674L25.15 22.642L22.292 25.863L78.689 57.98L0.857 64.42L0 69.253L80.88 78.063L13.432 133.863L16.29 137.747L96.598 94.074L80.69 171H85.549L116.319 98.621L135.086 155.274L138.421 152.716L130.704 95.116L159.95 128.274L161.856 125.242L139.468 84.126L170.715 95.684L171.001 92.179L142.993 71.526L169.382 65.179H169.381Z" fill="#FED42B"/>
</svg>
