<svg width="512" height="512" viewBox="0 0 512 512" fill="none" xmlns="http://www.w3.org/2000/svg">
<g clip-path="url(#clip0_356_101)">
<rect width="512" height="512" fill="#170D28"/>
<path d="M527.841 251.736L534.437 447.622L700.781 551.277L504.895 557.873L401.24 724.217L394.644 528.331L228.3 424.676L424.186 418.08L527.841 251.736Z" stroke="#241838" stroke-width="50" stroke-miterlimit="16"/>
<path d="M-64.9164 -152.781L26.2395 -52.9242L126.529 -140.326L87.7663 -11.8631L214.081 33.413L84.1627 62.0191L110.188 194.697L19.0322 94.8402L-81.2573 182.242L-42.4946 53.779L-168.809 8.50297L-38.891 -20.1032L-64.9164 -152.781Z" stroke="#241838" stroke-width="50" stroke-miterlimit="16"/>
<path d="M102 389L175.918 278.686L185.918 309.121L252.051 238.088L222.902 325.074M222.902 325.074L303.77 256.867M222.902 325.074L254.091 232.001L193.517 201.683L266.238 195.752L290.952 122L312.229 192.002L388 185.823L326.195 237.952M326.195 237.952L337 273.5L303.77 256.867M326.195 237.952L303.77 256.867" stroke="#FFFF4A" stroke-width="25"/>
<path d="M368.756 254.606L368.411 291.572L400.598 309.757L363.631 309.411L345.447 341.598L345.792 304.631L313.605 286.447L350.572 286.792L368.756 254.606Z" fill="white"/>
</g>
<defs>
<clipPath id="clip0_356_101">
<rect width="512" height="512" fill="white"/>
</clipPath>
</defs>
</svg>
