<svg width="512" height="514" viewBox="0 0 512 514" fill="none" xmlns="http://www.w3.org/2000/svg">
<rect width="512" height="512" rx="256" fill="black"/>
<g opacity="0.5" filter="url(#filter0_f_866_2)">
<path opacity="0.8" d="M342.009 131.917C350.005 136.534 348.176 150.587 344.518 178.692L343.174 189.016C342.112 197.178 341.58 201.26 343.163 204.816C344.746 208.371 348.136 210.708 354.912 215.38L363.484 221.29C386.817 237.377 398.484 245.42 396.564 254.452C394.645 263.484 380.715 266.087 352.856 271.294L342.62 273.205C334.53 274.717 330.484 275.474 327.591 278.078C324.698 280.683 323.524 284.628 321.174 292.516L318.203 302.495C310.114 329.658 306.069 343.239 296.885 344.204C287.702 345.169 280.922 332.726 267.362 307.838L262.987 299.806L191.069 424.369C189.437 427.198 188.62 428.613 187.672 429.623C184.552 432.948 179.817 434.217 175.453 432.897C174.126 432.497 172.712 431.679 169.883 430.046C167.055 428.413 165.641 427.597 164.629 426.648C161.305 423.529 160.037 418.794 161.355 414.43C161.757 413.103 162.573 411.689 164.207 408.859L236.123 284.296L226.979 284.523C198.646 285.224 184.48 285.574 180.724 277.138C176.968 268.703 186.707 258.409 206.187 237.822L213.343 230.26C219 224.282 221.829 221.291 222.638 217.484C223.447 213.675 222.08 209.793 219.343 202.031L215.882 192.212C206.46 165.482 201.749 152.116 208.611 145.938C215.474 139.759 228.273 145.842 253.872 158.006L263.275 162.473C270.71 166.006 274.427 167.773 278.299 167.366C282.17 166.959 285.439 164.459 291.977 159.457L300.246 153.131C322.756 135.911 334.011 127.3 342.009 131.917Z" fill="#4951FF"/>
<path opacity="0.2" d="M328.167 104.234C336.164 108.851 334.335 122.904 330.676 151.008L329.332 161.333C328.269 169.495 327.739 173.577 329.322 177.133C330.905 180.689 334.294 183.025 341.071 187.698L349.641 193.607C372.975 209.695 384.643 217.737 382.723 226.769C380.803 235.802 366.873 238.405 339.013 243.61L328.78 245.523C320.688 247.034 316.642 247.79 313.75 250.395C310.857 253 309.681 256.945 307.332 264.833L304.36 274.812C296.272 301.975 292.227 315.556 283.044 316.521C273.86 317.486 267.081 305.043 253.521 280.155L249.145 272.123L177.228 396.686C175.595 399.516 174.778 400.93 173.83 401.941C170.71 405.265 165.975 406.534 161.611 405.214C160.285 404.813 158.87 403.996 156.042 402.363C153.213 400.73 151.798 399.914 150.787 398.966C147.463 395.846 146.194 391.111 147.514 386.747C147.915 385.42 148.732 384.006 150.365 381.177L222.282 256.613L213.138 256.84C184.804 257.541 170.638 257.891 166.882 249.456C163.127 241.02 172.866 230.726 192.345 210.139L199.5 202.577C205.158 196.598 207.987 193.608 208.796 189.8C209.605 185.992 208.238 182.11 205.501 174.348L202.04 164.529C192.618 137.799 187.908 124.434 194.77 118.255C201.632 112.076 214.432 118.159 240.029 130.323L249.434 134.791C256.869 138.323 260.586 140.09 264.457 139.683C268.328 139.276 271.598 136.775 278.135 131.774L286.404 125.448C308.914 108.227 320.17 99.6175 328.167 104.234Z" fill="white"/>
</g>
<path d="M356.798 109.044C365.465 114.047 363.483 129.276 359.518 159.733L358.062 170.922C356.91 179.767 356.334 184.19 358.05 188.044C359.766 191.897 363.438 194.429 370.782 199.492L380.072 205.897C405.358 223.331 418.001 232.047 415.921 241.835C413.841 251.623 398.745 254.444 368.553 260.086L357.463 262.158C348.695 263.796 344.31 264.616 341.175 267.438C338.04 270.261 336.766 274.536 334.22 283.085L331 293.899C322.234 323.335 317.851 338.053 307.899 339.099C297.947 340.145 290.599 326.66 275.904 299.689L271.162 290.985L193.226 425.974C191.456 429.04 190.572 430.573 189.544 431.668C186.163 435.271 181.032 436.646 176.303 435.216C174.865 434.782 173.332 433.896 170.267 432.126C167.201 430.356 165.668 429.472 164.573 428.444C160.971 425.063 159.596 419.932 161.025 415.203C161.46 413.765 162.345 412.232 164.115 409.166L242.051 274.177L232.142 274.423C201.438 275.182 186.085 275.562 182.015 266.42C177.945 257.278 188.499 246.123 209.609 223.813L217.364 215.618C223.494 209.139 226.56 205.898 227.437 201.772C228.314 197.645 226.831 193.438 223.866 185.026L220.115 174.385C209.905 145.418 204.8 130.933 212.236 124.238C219.673 117.542 233.544 124.134 261.285 137.316L271.476 142.158C279.533 145.986 283.561 147.9 287.757 147.46C291.952 147.019 295.495 144.309 302.58 138.889L311.541 132.033C335.935 113.371 348.132 104.041 356.798 109.044Z" fill="#4951FF"/>
<path d="M341.798 79.0434C350.465 84.0468 348.483 99.2756 344.518 129.733L343.062 140.921C341.91 149.767 341.334 154.189 343.05 158.043C344.766 161.897 348.438 164.429 355.782 169.492L365.072 175.897C390.358 193.33 403.001 202.047 400.921 211.835C398.841 221.623 383.745 224.444 353.553 230.085L342.463 232.158C333.695 233.796 329.31 234.615 326.175 237.438C323.04 240.261 321.766 244.536 319.22 253.085L316 263.899C307.234 293.335 302.851 308.053 292.899 309.099C282.947 310.145 275.599 296.66 260.904 269.689L256.162 260.985L178.226 395.974C176.456 399.039 175.572 400.573 174.544 401.668C171.163 405.271 166.032 406.646 161.303 405.216C159.865 404.781 158.332 403.896 155.267 402.126C152.201 400.356 150.668 399.472 149.573 398.444C145.971 395.063 144.596 389.932 146.025 385.203C146.46 383.765 147.345 382.232 149.115 379.166L227.051 244.177L217.142 244.423C186.438 245.182 171.085 245.561 167.015 236.42C162.945 227.278 173.499 216.123 194.609 193.813L202.364 185.618C208.494 179.138 211.56 175.898 212.437 171.771C213.314 167.645 211.831 163.438 208.866 155.025L205.115 144.385C194.905 115.417 189.8 100.933 197.236 94.2373C204.673 87.5415 218.544 94.1333 246.285 107.316L256.476 112.158C264.533 115.986 268.561 117.9 272.757 117.459C276.952 117.018 280.495 114.309 287.58 108.889L296.541 102.033C320.935 83.3712 333.132 74.0404 341.798 79.0434Z" fill="white"/>
<mask id="mask0_866_2" style="mask-type:alpha" maskUnits="userSpaceOnUse" x="229" y="25" width="158" height="178">
<path d="M377.665 25.3165C378.972 24.6157 380.562 25.5332 380.608 27.0162L385.495 182.204C386.711 186.79 386.478 190.84 384.589 194.112C375.772 209.384 334.233 201.909 291.811 177.417C249.39 152.925 222.148 120.689 230.965 105.417C232.854 102.146 236.243 99.9196 240.82 98.6793L377.665 25.3165Z" fill="#FFD88E"/>
</mask>
<g mask="url(#mask0_866_2)">
<rect x="288.634" y="-49.6848" width="273.18" height="232.38" transform="rotate(30 288.634 -49.6848)" fill="#FFDB65"/>
<path d="M220.638 146.687C243.548 115.875 291.687 101.678 342.122 115.434C392.557 129.19 417.977 102.9 424.51 93.358" stroke="#C872FF" stroke-width="15"/>
<path d="M251.658 73.4459C276.689 60.2457 294.74 55.5904 333.628 66.7032C387.249 82.026 413.522 55.5012 420.211 45.813" stroke="#FF6579" stroke-width="15"/>
<path d="M228.029 190.649C253.502 161.453 298.975 145.275 358.093 167.785C417.211 190.294 445.77 166.301 453.006 157.171" stroke="#73B0FF" stroke-width="15"/>
</g>
<path d="M454.352 211.339L477.916 219.168C465.212 228.224 462.706 236.915 461.254 254.78L437.69 246.951C439.07 228.282 442.379 220.169 454.352 211.339Z" fill="#FF266B"/>
<path d="M59.2223 202.518L80.05 189C79.1927 204.577 84.4169 211.961 97.465 224.25L76.6373 237.769C62.9154 225.034 58.6445 217.385 59.2223 202.518Z" fill="#FFD426"/>
<path d="M427.735 369.053L398.348 380.406L416.665 401.794L427.735 369.053Z" fill="#5EFF50"/>
<path d="M130.485 104.095L126.525 129.898L149.194 126.049L130.485 104.095Z" fill="#3FD5FF"/>
<path d="M349.485 337.095L345.525 362.898L368.194 359.049L349.485 337.095Z" fill="#3FD5FF"/>
<path d="M81.4852 342.095L77.5245 367.898L100.194 364.049L81.4852 342.095Z" fill="#FF7226"/>
<path d="M274 456.5L281 429L300 441V460.5L274 456.5Z" fill="#FFD426"/>
<path d="M163.485 3.09501L159.525 28.8982L182.194 25.0486L163.485 3.09501Z" fill="#FF7226"/>
<defs>
<filter id="filter0_f_866_2" x="67" y="23" width="409.768" height="490.411" filterUnits="userSpaceOnUse" color-interpolation-filters="sRGB">
<feFlood flood-opacity="0" result="BackgroundImageFix"/>
<feBlend mode="normal" in="SourceGraphic" in2="BackgroundImageFix" result="shape"/>
<feGaussianBlur stdDeviation="40" result="effect1_foregroundBlur_866_2"/>
</filter>
</defs>
</svg>
