<svg width="240" height="240" viewBox="0 0 240 240" fill="none" xmlns="http://www.w3.org/2000/svg">
<g clip-path="url(#clip0_1309_68)">
<mask id="mask0_1309_68" style="mask-type:luminance" maskUnits="userSpaceOnUse" x="0" y="0" width="240" height="240">
<path d="M120 0C186.274 0 240 53.7258 240 120C240 186.274 186.274 240 120 240C53.7258 240 0 186.274 0 120C0 53.7258 53.7258 0 120 0ZM120 12C60.3532 12 12 60.3532 12 120C12 179.647 60.3532 228 120 228C179.647 228 228 179.647 228 120C228 60.3532 179.647 12 120 12Z" fill="white"/>
</mask>
<g mask="url(#mask0_1309_68)">
<g filter="url(#filter0_f_1309_68)">
<path d="M514.22 35.0169L243.222 -263.632L120 120L514.22 35.0169Z" fill="#FF2F32"/>
<path d="M-150.998 -178.649L-274.22 204.983L120 120L-150.998 -178.649Z" fill="#3F49FF"/>
<path d="M243.222 -263.632L-150.998 -178.649L120 120L243.222 -263.632Z" fill="#F957EB"/>
<path d="M-274.22 204.983L-3.22153 503.633L120 120L-274.22 204.983Z" fill="#20FFB8"/>
<path d="M-3.22153 503.633L390.999 418.649L120 120L-3.22153 503.633Z" fill="#6EF04D"/>
<path d="M390.999 418.649L514.22 35.0169L120 120L390.999 418.649Z" fill="#F3ED47"/>
</g>
</g>
</g>
<defs>
<filter id="filter0_f_1309_68" x="-402.22" y="-391.632" width="1044.44" height="1023.26" filterUnits="userSpaceOnUse" color-interpolation-filters="sRGB">
<feFlood flood-opacity="0" result="BackgroundImageFix"/>
<feBlend mode="normal" in="SourceGraphic" in2="BackgroundImageFix" result="shape"/>
<feGaussianBlur stdDeviation="64" result="effect1_foregroundBlur_1309_68"/>
</filter>
<clipPath id="clip0_1309_68">
<rect width="240" height="240" fill="white"/>
</clipPath>
</defs>
</svg>
