<svg width="240" height="240" viewBox="0 0 240 240" fill="none" xmlns="http://www.w3.org/2000/svg">
<path d="M165.734 61.8557C167.371 65.1269 166.044 71.9852 163.793 83.6106L162.665 89.4397C161.895 93.4122 161.512 95.3999 162.277 97.1233C163.042 98.8461 164.773 99.8942 168.235 101.989L169.026 102.467L182.332 99.8674L190.608 117.983H190.604C190.954 118.787 191.048 119.578 190.877 120.387C189.998 124.553 182.917 125.468 168.754 127.298L162.542 128.101C158.56 128.615 156.567 128.873 155.176 130.127C153.785 131.382 153.324 133.337 152.402 137.245L150.983 143.261C147.68 157.256 146.027 164.254 141.78 164.689C137.533 165.123 134.497 158.605 128.425 145.572L125.947 140.25C125.473 139.234 125.063 138.358 124.686 137.602L96.8735 195.715C95.4621 198.664 94.7559 200.139 92.4829 201.198C90.2093 202.258 89.2433 202.011 87.313 201.514C86.1014 201.202 84.8098 200.713 83.5171 199.967C82.2246 199.221 81.1565 198.346 80.2808 197.453C79.4071 196.562 78.8068 195.95 78.4263 195.003L70.228 177.025L82.2339 169.664L83.3657 170.174L103.388 134.29C92.2292 135.221 86.4784 135.306 84.938 131.87C84.9052 131.797 84.8751 131.724 84.8472 131.65L76.7661 113.903L97.5181 104.51L102.459 109.83L103.394 108.95C106.318 106.197 107.78 104.82 108.17 102.989C108.561 101.156 107.788 99.302 106.242 95.595L103.832 89.8147C98.3353 76.6351 95.5869 70.045 98.7554 67.2004C101.925 64.3561 108.181 67.7977 120.693 74.6829L126.011 77.6106C129.556 79.5613 131.329 80.5373 133.204 80.3381C135.079 80.1389 136.607 78.8118 139.663 76.1594L144.147 72.2668C145.511 71.0832 146.788 69.9731 147.989 68.9417L147.364 68.7014L157.588 44.0071L165.734 61.8557Z" fill="url(#paint0_linear_1309_110)"/>
<path d="M156.077 42.3628C159.78 44.5011 158.407 51.5893 155.662 65.7657L154.534 71.5957C153.765 75.5682 153.38 77.555 154.145 79.2784C154.91 81.0016 156.642 82.0492 160.104 84.1438L165.298 87.2859C177.516 94.6785 183.625 98.3756 182.746 102.542C181.867 106.709 174.786 107.623 160.623 109.453L154.412 110.256C150.428 110.771 148.436 111.028 147.045 112.283C145.654 113.537 145.193 115.492 144.271 119.401L142.851 125.416C139.548 139.411 137.896 146.409 133.649 146.844C129.402 147.279 126.365 140.761 120.294 127.727L117.816 122.406C117.342 121.389 116.933 120.513 116.555 119.757L88.7421 177.871C87.3305 180.82 86.6247 182.294 84.3514 183.354C82.0778 184.414 81.1124 184.166 79.1821 183.669C77.9705 183.357 76.679 182.869 75.3862 182.123C74.0937 181.376 73.0257 180.502 72.1498 179.609C70.7542 178.186 70.056 177.473 69.837 174.974C69.6183 172.476 70.5424 171.127 72.3908 168.43L108.812 115.286C107.969 115.337 107.005 115.421 105.887 115.52L100.039 116.034C85.7157 117.292 78.5534 117.922 76.8065 114.026C75.0597 110.13 80.2946 105.201 90.7629 95.343L95.2625 91.1062C98.1864 88.3528 99.648 86.9759 100.039 85.1438C100.43 83.3117 99.6567 81.4579 98.1108 77.7509L95.7005 71.9705C90.2041 58.7904 87.4558 52.2004 90.6247 49.3559C93.794 46.5116 100.05 49.9534 112.562 56.8386L117.88 59.7659C121.425 61.7167 123.198 62.6924 125.073 62.4932C126.947 62.294 128.476 60.9678 131.532 58.3154L136.015 54.4225C146.92 44.957 152.373 40.2246 156.077 42.3628Z" fill="white"/>
<defs>
<linearGradient id="paint0_linear_1309_110" x1="163.24" y1="44.1303" x2="69.935" y2="194.785" gradientUnits="userSpaceOnUse">
<stop stop-color="#3683FF"/>
<stop offset="1" stop-color="#653BFF"/>
</linearGradient>
</defs>
</svg>
