<svg width="512" height="512" viewBox="0 0 512 512" fill="none" xmlns="http://www.w3.org/2000/svg">
<rect width="512" height="512" rx="256" fill="black"/>
<path d="M356.798 109.044C365.465 114.047 363.483 129.276 359.518 159.733L358.062 170.921C356.91 179.767 356.334 184.19 358.05 188.043C359.766 191.897 363.438 194.429 370.782 199.492L380.072 205.897C405.358 223.331 418.001 232.047 415.921 241.835C413.841 251.623 398.745 254.444 368.553 260.086L357.463 262.158C348.695 263.796 344.31 264.615 341.175 267.438C338.04 270.261 336.766 274.536 334.22 283.085L331 293.899C322.234 323.335 317.851 338.053 307.899 339.099C297.947 340.145 290.599 326.66 275.904 299.689L271.162 290.985L193.226 425.974C191.456 429.039 190.572 430.573 189.544 431.668C186.163 435.271 181.032 436.646 176.303 435.216C174.865 434.782 173.332 433.896 170.267 432.126C167.201 430.356 165.668 429.472 164.573 428.444C160.97 425.063 159.596 419.932 161.025 415.203C161.46 413.765 162.345 412.232 164.115 409.166L242.051 274.177L232.142 274.423C201.438 275.182 186.085 275.562 182.015 266.42C177.945 257.278 188.499 246.123 209.609 223.813L217.364 215.618C223.494 209.139 226.56 205.898 227.437 201.772C228.314 197.645 226.831 193.438 223.866 185.026L220.115 174.385C209.905 145.418 204.8 130.933 212.236 124.237C219.673 117.542 233.544 124.133 261.285 137.316L271.476 142.158C279.533 145.986 283.561 147.9 287.757 147.459C291.952 147.018 295.495 144.309 302.58 138.889L311.541 132.033C335.935 113.371 348.132 104.041 356.798 109.044Z" fill="#4951FF"/>
<path d="M341.798 79.0435C350.465 84.0469 348.483 99.2756 344.518 129.733L343.062 140.921C341.91 149.767 341.334 154.19 343.05 158.043C344.766 161.897 348.438 164.429 355.782 169.492L365.072 175.897C390.358 193.331 403.001 202.047 400.921 211.835C398.841 221.623 383.745 224.444 353.553 230.085L342.463 232.158C333.695 233.796 329.31 234.615 326.175 237.438C323.04 240.261 321.766 244.536 319.22 253.085L316 263.899C307.234 293.335 302.851 308.053 292.899 309.099C282.947 310.145 275.599 296.66 260.904 269.689L256.162 260.985L178.226 395.974C176.456 399.039 175.572 400.573 174.544 401.668C171.163 405.271 166.032 406.646 161.303 405.216C159.865 404.782 158.332 403.896 155.267 402.126C152.201 400.356 150.668 399.472 149.573 398.444C145.97 395.063 144.596 389.932 146.025 385.203C146.46 383.765 147.345 382.232 149.115 379.166L227.051 244.177L217.142 244.423C186.438 245.182 171.085 245.562 167.015 236.42C162.945 227.278 173.499 216.123 194.609 193.813L202.364 185.618C208.494 179.138 211.56 175.898 212.437 171.771C213.314 167.645 211.831 163.438 208.866 155.025L205.115 144.385C194.905 115.417 189.8 100.933 197.236 94.2374C204.673 87.5416 218.544 94.1334 246.285 107.316L256.476 112.158C264.533 115.986 268.561 117.9 272.757 117.459C276.952 117.018 280.495 114.309 287.58 108.889L296.541 102.033C320.935 83.3713 333.132 74.0405 341.798 79.0435Z" fill="white"/>
</svg>
