<svg width="42" height="32" viewBox="0 0 42 32" fill="none" xmlns="http://www.w3.org/2000/svg">
<path d="M11.4102 19.4618C10.3078 22.3253 9.40082 25.7193 7.55143 28.2622C7.0393 28.9664 6.41669 29.517 5.53179 29.517C3.67672 29.517 3.3607 27.8876 2.59257 26.5434C2.10047 25.6822 2.28318 24.4992 2.28318 23.5526C2.28318 22.0119 2.43414 20.5504 2.62695 19.0321C2.82511 17.4715 2.94655 15.8529 3.04806 14.2795C3.1648 12.47 3.52074 10.6996 3.52074 8.8823C3.52074 7.20682 4.28581 5.72787 4.99895 4.30158C5.84029 2.6189 8.46507 2.48622 10.018 2.25616C13.3587 1.76124 17.007 2.13584 20.3826 2.13584C23.6666 2.13584 27.216 2.00428 30.4464 2.67728C31.8683 2.9735 33.3266 2.98725 34.7349 3.37341C36.1688 3.76657 37.5636 4.34901 38.8601 5.07506C39.9874 5.70633 40.1002 6.4274 40.218 7.67051C40.3972 9.56205 40.4353 11.545 40.3297 13.4458C40.2007 15.769 39.4934 18.0598 39.4102 20.3899C39.3623 21.729 39.0353 23.1365 38.6367 24.412C38.104 26.1165 37.2197 28.6767 35.2334 29.1732C33.8906 29.5089 32.404 28.4238 31.6668 27.4286C30.7164 26.1456 30.0965 24.7596 29.6643 23.2088C29.4632 22.4871 29.3012 20.8471 28.7276 20.3212C27.9733 19.6298 27.2474 19.4975 26.2524 19.2985C23.4221 18.7324 20.4413 18.6946 17.5379 18.8516C15.943 18.9378 14.4322 19.4618 12.8025 19.4618M10.1727 13.2739C10.1443 13.3039 10.1158 13.3328 10.0871 13.3606M10.0871 13.3606C8.50694 14.8897 6.43289 13.0425 7.45689 11.2285C8.15632 9.98952 9.70721 9.14496 11.0235 8.7276C11.7634 8.49301 13.2707 7.9903 14.0315 8.41821C14.7169 8.8038 14.3142 10.4111 14.0401 10.9191C13.5536 11.8204 12.9227 12.4952 12.115 13.1106C11.7897 13.3584 10.5898 13.6591 10.0871 13.3606ZM10.0871 13.3606C9.94879 13.2785 9.86327 13.151 9.86327 12.9645M33.0676 10.0253L32.4488 10.18M32.2942 15.1303L32.4488 15.285M29.4026 12.2214C29.0326 12.4701 28.6526 12.6775 28.6526 12.9714M35.2334 11.727V12.8099" stroke="white" stroke-width="3" stroke-linecap="round"/>
</svg>
