<svg width="42" height="43" viewBox="0 0 42 43" fill="none" xmlns="http://www.w3.org/2000/svg">
<path d="M3.5008 19.3622C5.35366 19.7589 7.30572 19.8947 9.18876 20.1009C12.0349 20.4125 14.8836 20.5877 17.7438 20.731C22.4445 20.9664 27.1484 21.2221 31.8574 21.2394C34.4747 21.2489 37.0922 21.2394 39.7096 21.2394C40.157 21.2394 40.6467 21.3876 40.4587 20.8483C39.6219 18.448 38.3984 16.1563 36.75 14.1565C35.6798 12.8582 34.5141 11.6319 33.4389 10.337C32.4205 9.11048 31.4757 7.82554 30.4793 6.58265C29.6538 5.55282 28.6447 4.69897 27.7648 3.71909C27.1895 3.07835 26.4323 2.40645 25.6422 2.01573C25.4984 1.94459 25.4013 2.13388 25.3 2.20258C24.5716 2.69696 23.9627 3.34401 23.2468 3.85814C21.5201 5.09829 19.6385 6.16123 17.7901 7.2301C15.2803 8.68137 12.8385 10.1873 10.4697 11.8361C7.84705 13.6616 4.54338 14.7979 2.63142 17.4111C2.54939 17.5233 2.27404 17.7599 2.25222 17.8761C2.20477 18.1288 2.93109 18.302 3.14472 18.3888C5.02978 19.1555 7.09046 19.4674 9.07778 19.9097C10.0975 20.1366 11.3092 19.9879 12.3657 19.9879C12.8599 19.9879 12.9068 19.9495 12.9068 20.4181C12.9068 20.7191 12.8079 21.0421 12.7403 21.335C12.3439 23.0525 12.0895 24.8135 11.8801 26.558C11.3901 30.6407 11.1587 34.8124 11.1587 38.9248C11.1587 39.1368 11.0364 39.7713 11.1726 39.9633C11.2707 40.1015 12.4064 40.1375 12.5738 40.1501C14.1601 40.2694 15.728 40.3239 17.3184 40.3239C17.4794 40.3239 17.6996 40.3613 17.8548 40.3196C18.0852 40.2577 18.1683 39.2935 18.1924 39.1377C18.4516 37.4598 18.4391 35.7954 18.5716 34.1145C18.6098 33.63 18.7207 33.1182 19.2699 33.1281C20.5541 33.1513 21.8402 33.6255 23.1266 33.7365C23.9813 33.8102 24.862 33.7538 25.7209 33.7538C25.9976 33.7538 25.9808 33.6716 25.9752 34.0059C25.964 34.6674 25.7315 35.3561 25.5498 35.9917C25.1509 37.3869 24.5601 38.8567 24.5601 40.3153C24.5601 40.9597 24.5528 40.9497 25.2723 40.9497C27.1035 40.9497 28.9348 40.9497 30.766 40.9497C31.2716 40.9497 32.1477 41.1828 32.3383 40.6455C32.5981 39.9132 32.6789 39.1338 32.8008 38.3729C33.1498 36.194 33.1944 33.8952 33.0875 31.6985C32.9651 29.186 32.6434 26.6589 32.7221 24.142C32.7447 23.4218 32.5098 21.4145 32.8008 20.731" stroke="white" stroke-width="3" stroke-linecap="round"/>
</svg>
