<svg width="18" height="39" viewBox="0 0 18 39" fill="none" xmlns="http://www.w3.org/2000/svg">
<path d="M5.11116 36.7075C4.23379 36.7075 2.54954 37.0123 2.03499 35.99C1.61943 35.1644 2.54133 34.4498 3.18521 34.13C3.86331 33.7932 5.05139 34.0893 4.57617 35.0334C4.35583 35.4712 2.93335 36.6854 2.70372 36.2292M6.55562 25.4676C4.14236 25.4676 2.72761 24.0352 2.99796 21.2825C3.25597 18.6555 7.51905 17.0308 9.57829 16.008C11.6682 14.97 15.0993 13.6822 16.1319 11.4111C18.0572 7.17611 11.972 3.06414 8.49494 2.41652C6.19405 1.98797 2.92766 2.29541 1.5 4.42269" stroke="white" stroke-width="3" stroke-linecap="round"/>
</svg>
