<svg width="45" height="37" viewBox="0 0 45 37" fill="none" xmlns="http://www.w3.org/2000/svg">
<path d="M13.1094 26.1817C13.0732 28.6073 11.1475 30.8351 9.43899 32.3937C7.98363 33.7214 5.74213 34.7208 3.80092 35.0614C3.66583 35.0851 1.6474 35.327 2.05401 34.7397C3.26717 32.9874 4.79429 31.4231 5.85056 29.5746C6.657 28.1634 7.3661 26.7573 7.97587 25.2483C8.1172 24.8986 8.54133 24.0496 8.51824 23.6339C8.49948 23.2963 7.83826 22.74 7.66054 22.4798C6.81349 21.2394 6.31046 19.7435 5.78749 18.349C4.63709 15.2812 4.40501 12.1385 6.14697 9.24228C6.94926 7.90835 7.98409 6.69913 9.02276 5.54663C9.41282 5.11383 9.86166 4.53436 10.385 4.27271M11.7917 4.04576C11.8475 3.79503 12.3199 3.70871 12.5107 3.62952C13.8543 3.07181 15.1486 2.79535 16.5847 2.56371C19.2494 2.13393 21.8567 2.00844 24.5562 2.00243C27.4677 1.99594 30.3755 1.96608 33.2467 2.52587C35.9715 3.05712 39.3385 4.12992 41.4074 6.09539C43.0728 7.67749 43.3069 9.76016 43.3435 11.9542C43.3927 14.9057 43.497 18.4805 42.2777 21.2501C41.2793 23.5179 39.2956 25.5322 37.4595 27.1404C34.398 29.8218 31.0465 30.8938 27.0536 31.1514C24.8656 31.2925 22.5702 31.2155 20.4822 30.4955C19.4029 30.1233 18.0184 29.7604 17.2974 28.799C16.863 28.2199 16.0268 27.7735 15.4243 27.4053C15.2086 27.2735 14.9379 26.8306 14.7432 26.6359C14.5395 26.4322 14.4489 26.0808 14.2891 25.8412" stroke="white" stroke-width="3" stroke-linecap="round"/>
<path d="M13.0683 17.3846C12.3933 17.3846 12.2661 17.0035 12.5133 16.3251C12.8617 15.3689 13.5131 14.7768 14.5062 14.6349C15.1096 14.5487 15.6601 14.3601 15.9062 15.0259C16.1309 15.634 16.1915 16.8198 15.7927 17.3594C15.472 17.7933 14.6872 18.4617 14.1151 18.0657C13.6592 17.7501 13.6089 16.9575 13.9764 16.59" stroke="white" stroke-width="3" stroke-linecap="round"/>
<path d="M27.4847 17.7251C26.8417 17.7251 24.9873 18.1565 24.9873 17.1576C24.9873 16.0745 26.1956 14.6602 27.3775 14.6602C28.6226 14.6602 28.6368 16.8379 27.9388 17.4981C27.4922 17.9206 26.1018 18.5249 25.7819 17.7251" stroke="white" stroke-width="3" stroke-linecap="round"/>
<path d="M36.7935 17.498C36.4738 17.498 34.7846 17.7029 34.6619 17.3593C34.3033 16.3552 34.935 14.9372 36.0872 14.8871C36.4605 14.8709 37.1104 14.7713 37.2224 15.2529C37.3341 15.7333 37.2822 16.3661 37.0458 16.7917C36.7975 17.2386 36.1232 18.1107 35.5448 17.725" stroke="white" stroke-width="3" stroke-linecap="round"/>
</svg>
